<mxfile host="app.diagrams.net" modified="2021-06-04T21:48:29.830Z" agent="5.0 (Windows NT 10.0; Win64; x64) AppleWebKit/537.36 (KHTML, like Gecko) Chrome/91.0.4472.77 Safari/537.36" etag="pJ7Qr8iQy8mR6klwy0xQ" version="14.7.4" type="github">
  <diagram id="kS7YShBmf-Vi9kX7x40W" name="Page-1">
    <mxGraphModel dx="868" dy="450" grid="1" gridSize="10" guides="1" tooltips="1" connect="1" arrows="1" fold="1" page="1" pageScale="1" pageWidth="827" pageHeight="1169" math="0" shadow="0">
      <root>
        <mxCell id="0" />
        <mxCell id="1" parent="0" />
        <mxCell id="oquPnyjEzPXF4-H-xuAM-6" value="" style="strokeWidth=1;shadow=0;dashed=0;align=center;html=1;shape=mxgraph.mockup.containers.browserWindow;rSize=0;strokeColor=#666666;strokeColor2=#008cff;strokeColor3=#c4c4c4;mainText=,;recursiveResize=0;portConstraintRotation=0;noLabel=0;snapToPoint=0;fixDash=1;fillColor=#F9E6C8;" parent="1" vertex="1">
          <mxGeometry y="1" width="830" height="2359" as="geometry" />
        </mxCell>
        <mxCell id="oquPnyjEzPXF4-H-xuAM-7" value="Page 1" style="strokeWidth=1;shadow=0;dashed=0;align=center;html=1;shape=mxgraph.mockup.containers.anchor;fontSize=17;fontColor=#666666;align=left;" parent="oquPnyjEzPXF4-H-xuAM-6" vertex="1">
          <mxGeometry x="60" y="12" width="110" height="26" as="geometry" />
        </mxCell>
        <mxCell id="oquPnyjEzPXF4-H-xuAM-8" value="https://www.drcafe.com.br" style="strokeWidth=1;shadow=0;dashed=0;align=center;html=1;shape=mxgraph.mockup.containers.anchor;rSize=0;fontSize=17;fontColor=#666666;align=left;" parent="oquPnyjEzPXF4-H-xuAM-6" vertex="1">
          <mxGeometry x="130" y="60" width="250" height="26" as="geometry" />
        </mxCell>
        <mxCell id="oquPnyjEzPXF4-H-xuAM-3" value="&lt;h2&gt;&lt;font style=&quot;font-size: 36px&quot; face=&quot;Georgia&quot; color=&quot;#451e0a&quot;&gt;Dr. Café&lt;/font&gt;&lt;/h2&gt;" style="text;html=1;resizable=0;autosize=1;align=center;verticalAlign=middle;points=[];fillColor=none;strokeColor=none;rounded=0;" parent="oquPnyjEzPXF4-H-xuAM-6" vertex="1">
          <mxGeometry x="80" y="125" width="170" height="60" as="geometry" />
        </mxCell>
        <mxCell id="oquPnyjEzPXF4-H-xuAM-4" value="&lt;font style=&quot;font-size: 18px&quot; color=&quot;#451e0a&quot;&gt;Sobre nós&amp;nbsp; &amp;nbsp; &amp;nbsp;Mais pedidos&amp;nbsp; &amp;nbsp; Promoções&amp;nbsp; &amp;nbsp; &amp;nbsp;Contatos&lt;/font&gt;" style="text;html=1;resizable=0;autosize=1;align=center;verticalAlign=middle;points=[];fillColor=none;strokeColor=none;rounded=0;" parent="oquPnyjEzPXF4-H-xuAM-6" vertex="1">
          <mxGeometry x="350" y="150" width="440" height="20" as="geometry" />
        </mxCell>
        <mxCell id="oquPnyjEzPXF4-H-xuAM-23" value="&lt;font color=&quot;#f9e6c8&quot;&gt;First slide&lt;/font&gt;" style="html=1;shadow=0;dashed=0;strokeColor=#6D1F00;strokeWidth=1;fontColor=#ffffff;whiteSpace=wrap;align=center;verticalAlign=middle;fontStyle=0;fontSize=40;fillColor=#451E0A;" parent="oquPnyjEzPXF4-H-xuAM-6" vertex="1">
          <mxGeometry y="185" width="827" height="375" as="geometry" />
        </mxCell>
        <mxCell id="oquPnyjEzPXF4-H-xuAM-24" value="" style="html=1;verticalLabelPosition=bottom;labelBackgroundColor=#ffffff;verticalAlign=top;shadow=0;dashed=0;strokeWidth=4;shape=mxgraph.ios7.misc.more;strokeColor=#a0a0a0;" parent="oquPnyjEzPXF4-H-xuAM-23" vertex="1">
          <mxGeometry x="1" y="0.5" width="7" height="14" relative="1" as="geometry">
            <mxPoint x="-50" y="-7" as="offset" />
          </mxGeometry>
        </mxCell>
        <mxCell id="oquPnyjEzPXF4-H-xuAM-25" value="" style="flipH=1;html=1;verticalLabelPosition=bottom;labelBackgroundColor=#ffffff;verticalAlign=top;shadow=0;dashed=0;strokeWidth=4;shape=mxgraph.ios7.misc.more;strokeColor=#a0a0a0;" parent="oquPnyjEzPXF4-H-xuAM-23" vertex="1">
          <mxGeometry y="0.5" width="7" height="14" relative="1" as="geometry">
            <mxPoint x="43" y="-7" as="offset" />
          </mxGeometry>
        </mxCell>
        <mxCell id="oquPnyjEzPXF4-H-xuAM-26" value="" style="html=1;shadow=0;strokeColor=none;fillColor=#ffffff;" parent="oquPnyjEzPXF4-H-xuAM-23" vertex="1">
          <mxGeometry x="0.5" y="1" width="30" height="4" relative="1" as="geometry">
            <mxPoint x="-50" y="-20" as="offset" />
          </mxGeometry>
        </mxCell>
        <mxCell id="oquPnyjEzPXF4-H-xuAM-27" value="" style="html=1;shadow=0;strokeColor=none;fillColor=#BBBBBB;" parent="oquPnyjEzPXF4-H-xuAM-23" vertex="1">
          <mxGeometry x="0.5" y="1" width="30" height="4" relative="1" as="geometry">
            <mxPoint x="-15" y="-20" as="offset" />
          </mxGeometry>
        </mxCell>
        <mxCell id="oquPnyjEzPXF4-H-xuAM-28" value="" style="html=1;shadow=0;strokeColor=none;fillColor=#BBBBBB;" parent="oquPnyjEzPXF4-H-xuAM-23" vertex="1">
          <mxGeometry x="0.5" y="1" width="30" height="4" relative="1" as="geometry">
            <mxPoint x="20" y="-20" as="offset" />
          </mxGeometry>
        </mxCell>
        <mxCell id="oquPnyjEzPXF4-H-xuAM-31" value="" style="verticalLabelPosition=bottom;verticalAlign=top;html=1;shape=mxgraph.basic.rect;fillColor2=none;strokeWidth=1;size=20;indent=5;fillColor=#451E0A;" parent="oquPnyjEzPXF4-H-xuAM-6" vertex="1">
          <mxGeometry y="999" width="826" height="461" as="geometry" />
        </mxCell>
        <mxCell id="_z7VufSlRjq4akLYijZS-1" value="&lt;font style=&quot;font-size: 46px&quot; color=&quot;#451e0a&quot;&gt;Sobre nós&lt;/font&gt;" style="text;html=1;resizable=0;autosize=1;align=center;verticalAlign=middle;points=[];fillColor=none;strokeColor=none;rounded=0;" parent="oquPnyjEzPXF4-H-xuAM-6" vertex="1">
          <mxGeometry x="299" y="599" width="230" height="30" as="geometry" />
        </mxCell>
        <mxCell id="_z7VufSlRjq4akLYijZS-16" value="&lt;font style=&quot;font-size: 46px&quot; color=&quot;#451e0a&quot;&gt;Promoções&lt;/font&gt;" style="text;html=1;resizable=0;autosize=1;align=center;verticalAlign=middle;points=[];fillColor=none;strokeColor=none;rounded=0;" parent="oquPnyjEzPXF4-H-xuAM-6" vertex="1">
          <mxGeometry x="288" y="1489" width="250" height="30" as="geometry" />
        </mxCell>
        <mxCell id="_z7VufSlRjq4akLYijZS-18" value="" style="shape=image;imageAspect=0;aspect=fixed;verticalLabelPosition=bottom;verticalAlign=top;sketch=0;fillColor=#DFC48F;image=data:image/png,iVBORw0KGgoAAAANSUhEUgAAAO0AAAEvCAYAAACpGkaEAAAAAXNSR0IArs4c6QAAAARnQU1BAACxjwv8YQUAAAAJcEhZcwAADsMAAA7DAcdvqGQAAIwcSURBVHhe7b0HnF5Xde69phf13nuxVW1Zstx7AWOMbSB0yJcEEsDUhOSXm4Sb3OSS5CYh5QIBbgpJIEBCL27YuBdZLpLVrWr1Xkaa/r4z8z3/tc+eeTWakWasGU07zzt7Tttnn92evdbueXX7VjRZivMGkdiZiMxLTIoUnUV+ckyRIkUfQUraFCn6GFLSdhM6pPqmFZMUbwApabsQDQ0N1tTYaPn5itaEtU1NTW70LxyFvLw8P2+U3Vi7DXb8cYoUZ0VK2i4EZM3Lz3MyNjRAyCbdy3OScr+woMDt8Jx7BYUFlqmvd8Lm5xcEe3lpkqQ4O9Ic0oXIJR3nELGwsNAKRFRInMlmXRpzj+eZTMaKS4qtSNegobFBz7N+niJFe0hJ24WAiABpWlRU6MdsVkQUGYuLi62kpMSf19XVuXQtLS3z69rkukCSuLEx1ZFTnB1pP20XwSNRpA2qbr4TMJOpl8laxYkTtm//Pjt69Jid0Hk2m7EyEXbM6DE2Y8Z0GzlylEvbRr1bKJXZ67cpUrSDlLTtoSlRQvKInhhFTX4W5Gn4H5+gFnOO+huQZydPnrR1a9fZ6tWrbffu3VZbW2dZb6xqsmJJYl6YMnWyvfnNb7YFCxaIrNR1kdTB7RQp2kJK2jaBxCz2o1mjDtQzRcY8zsU1SULVXnXEiGR5NDAVSYKGqESarlu3wZ55+jk7dOiw25GGLNVXD3UO9b3RSgVCQWGejR8/1n71V99vQ4aU27DhQ0T8TLCYy12/TMmcQvkgJW1bCKSFmoGsiYHAMhKIlifSQVYEa55RF82T+nvcNmzYaOvXrbcd21+3mpp6l8BOVncL6R2IR9cQhM1m6234iCF222032U03X6cnDZZXEJOkJWnyVECkpE0B0oaodgHTYGQiHhNA2MJCSdVMo9XVZq2woMQl7Pp1G+2B+x+yH//op7Z27Qarq8/6W6HrB7KdTji6gLKq7xYXF1lDNmtHjh7xVuUA3mz5ZooUuUhJ2yZEGFRiV4shXSQu3ThFVl/XIClbbOXlw+zwoeP2wx/8xP7zW9+1l158xaVqUWGJ1YvQTeI83T6tCRugem1JkVVXV3nj09Qpk62qqjKtz6Y4J1LStguxL6rF3hglMjXlS9JC3GKpvll7YcVL9p1v/7e98MLLVlcnkjYVSHrKmuwVFRW7Cn16QzAXwUgBl+rcaKVlxTZy9AhvRS5C6ja21U+bEjlFC1LStgdXi6OE5QBxaDwqVN21wn756BP2ve/9yDZu3Gw11fUyGREWMkqyyq73t55WD42EDe7mF+i+vlGg4/Lly2zCxAkqDJDMbRDUvZASN0VAStqzAJow5JB6LC3FEHL7tp32X9/9nj380COq09brHlGYZyUlpX5kMAV2OYdrDKxokp6cL2mNZM3zBq2s1WdqvD771rvutKuuugKblsnUubRNWJoiRZtIW4/bAS24dfV1VlY6yGprMqpv1tqWLTvsl488bgcOHhZhM95w1JAVqWWfLp2CgiKRMs+7bGJ/KxKV60apvQWFqMtSiUtLbaIk6xVXLLcrrrxcb0PkBqnKJSJ5RnZwMRDfkUjsUAykGOhISdsO8qTlMkIpW0/dttBeenG1/eiHP7WTJyutIJ9W3iBVmQTgRFVd1+u8Tjjekeor0jaJjBAR1be4uNBGjhphy5YttSWXLrGx48a53cIi3gsSGbK3DOHgIhzD/zSpUigfpKRtGzQIZRsaraS4zB599Em7/+cPS6oynU7KravAZkVFRVJ781wimxW6XVTcRondQYNLrba2RsTP2ODB5TZ5ygRbsuQSu/TSS2zwkEEuoZHMkJpBFi5tdcS9kCApaVO0jZS07UHkqaqusfXrN9l/fef7ViMVubCg1PtdGYYYpCF13kA6ntXVZXzMcXFJodXX1/jopmnTJtviSxa4GTSozCUp0pXBGHkiOgMsuEYaU3n2SQfBkqCjD6dMSZuiBSlp2wBSlHbgDRs22be//V9WVVmrOmueJGfWB1ZATOqm1FOdX1KFG7L5Im6x12NLSots5szpds21V9nsOTNE1hJJbaRxaC3mqBqw9/X6RHhvoOKeigJ9vCVBUtKmOBMDhrSQMJ6F7pwAr4N6DIgYqsg2NjAeuMiOHT1l3/zmd2zrlq1ScaUSZxpEuEK37wQSl5gPCwqLCkRYVOeMXXTRXLv2umttxvTpIm+xtxAXFIQGKF7k3VhnDS3PLVKbAiDUiXMR/B3+p0ihvDAQSJvQLCEH5OGYBFskocEpDvqHW4x4+v73fmYvvbRaKq+krFgbtNZAnUAs5r+KdLqXzWZt1MgyW37FpXbFFVfaqFGjrFj13UYcE+J7KVJ0BSjqBxgCgQMiYfNFWEWFzpn/unnLFnvhhZU+rDAopglEdiSmG94VmTP1GVswf5594IMfsLe+9a02adIkV5GhdRjCmCJF12IAkjYXqMQMS0TKFoqwDXbs2HF78smnfAhicTH9ptRDGQnlthNVlyVjVIctzLMbb7rO3vOed9vMGTOMubT19XV6r9jtM9ndhXKKFF2IAULaqA5H04ICERZiYeolNXfv3mtbNm/1FmLUXqQqDU/MyvHGJxG2qLjQCXvb7bfaXXe91caMHeX1WkiO3draWrlVLxW52JedSZGiKzGAJK1YSV02tz4reGutDH2vNOS+unqNk5e+V9RcZuBksgxXFPQuS8iUl5fZjTfeaLfccqP3x9bV1chuiEqODGmkDxfSY1Kk6EoMYPUYGqLzEgXUaYts39799vrru8Rkum9CS7FLV6m9qLqQ3Qf4X7HMrr/+Gu+PpdunuISlUykAwtKpPl6Z8kGkT5dETdHVGOA5SqRt8pqqtxpv2/a6VVZW6z6rTQRpDPlaxhBnbcHC+XbZZZfayFHDvV5bQFdPk6SpHKB+HBqKQ2tzQItUT5GiKzBwSNtKLY6AlJA3U5+1rVu3W30dAyZYPiaMAw4NVUFNLikpkoS9zqZPnyqXwiD/4G5oTU6R4kJgYEta8Qw5C3EZgsgibKizDQywSNRjF8b6Qd7Zs2fZ5MkTncQNUpelDMtOVteQO3EzRYpuxgAmbcIykZSW4pqaWjfch6w+VJGfzsN1vs1fMN/Kykoty2qJSGG3wQAKTCppU1wYDPg6LasiQreammpJTxqcsk5YjrQEN6Em61deXi4pO9m7cEI3kLOWP7/GpEhxITDgSYthrx1afGOrLyOkOPdpcrpBAzDjiJliB8KEgWCPKAwrVQzwqExxwTDAc1rSyqt/LMSWLxXYt+Xw+6Gu69JU5xCYZ7Qgc03rsi+PyrP8sKFWihQXAgOYtDAyjD1m+CEDJkpLSkU+JCdc5CjyslCb/jPgorq6VgQN44kZqujk9v9IaVqTU6TofgxsSSvhmO+S1KysrMyGDR8qokI+yAhpGXPM6or5Vlubsb179useW1QyvLEpWU4mNkSlSHFhMKBJi0LLoAlahlm/acqUMEMH0kJbogfSsvUH/bevvbbVMvUNvkYU0pnJBKjLquIm76VI0f0YOKT1xqJ2iJXX5OSdP3+eDR06SDcavRsIact79NsyA+i1TVts+/adInKhFReVwG2dq37rLceo2ylSdD8GtnqMcqu6aFCJG2369Ck2ZuxoMTFcIz1DA1OQuhUVlfbUU8/Yvr0HJGVFap84X8gIRrmBrWg/kBlwP0WKrsTAIu1pBEIF1k+Mg7iMHx45aqSk7cUioiKGObSJysvkAVZiLJJ03bpluz3++JO++Za0Yyes13tFWNRlNtUK9V0IPcDLxBTdggGUqxKJ2UpNjhPcA78abPEli2za9KkiqNTehkzzpHZajdnHh1UZV69aZw8/9Kjv28OqijROMezRpauMb28pNrv0TSRuihRdhQFC2kjUaAI4YxAFo5zgVn2mzluQb7zheisqLrCGpowIW2B19bVOPqQqa0mx2dZTTz5rzzz9vCRug5OXhd9gKbsOYJcuIp90ED6VIkWXYYDqby16cpgDG1RaVk4sKiywxYsX2WWXLbaSElasCM8hYb5PIlCUNRXYyZPV9tBDj8g86sun+gALqdOs0JjNsm9tUJnj4m4pUnQVBiBpIWwgrf+XKIRkSFokZIFIy3Iyb33rW2zJZZeonpoVeYuttLTEpXJhQZFVVdXoXrlVnqqx5597wb73vR/Yvn304ZrbxR3WmMJNCoMUKboSBZ//nQ//SXLebxFVVI7NBmKpLuo/1UGps7K2E+s60QdbUlrqS6EePnTITpw44fd4kZZmCJypr/cxyPX1Wdu/76Akb4UNGlxuw4aNkJ3wRW+g4jv6NVPXK7qcBDvheC4TylbOUqRIdxhoB2yoBb8OHDhoP/zhj23jhtdUny2UuivqSD2mrxbNFzsMtmjKq7MxY4fZzTffaEuXLvX9eupVFy4qYnIBAzEYhEGLtOrRUrchYmx1Pp2Ora8FL1zoYkrXm0oxQCTtGwFSlEEX5YMG2ayZM62qutoOHjwo9bfUapl3K7aWlKAyI4HzVN81q66qstd37rJjx47ZsKFDbaQkNXVcGqdQm1kUDjoW6BrCI+3PIGizTOaYGFlhv6AceZ1iACOVtO0hP0haVmlk0gBbXD700C9s5Qsv+XV9PXNvG4xlU73lWKRiBUYarRiYMWnyRLv5lhts0aIFIm2+6IZaXax36vW8yQrZgaChvahvTeRwJyVtCpCSth1kGoKE9C6hQklUxVJNTZ29sOJFe/aZ523Llu1WVlYuIrE8DYu6FYqLYRwz0jfbUG9Dhw2xhYvm2TVXX2FzL56tQkD2RDw2l/aFzDsx0SDWv1OkSEnbDgqL862urs5V2bDre5ETtLa23vbtO2jPPfu8vfLKKl9bioEV1lQsyUmDEUvTQK5G1WMzViR3Ro0eYUuWLLbLL1+q81E+swg7LHzucC62lQwt95yyvoNeioGOlLTtoD5b66tVMA2PCfLUQX0zafaVzSvw9aTY7+eXv3zMKk9V6X6pZev1TLyKDU80QuXlE73suJdnM2ZMt1tvvdlmz5nldVRmFlGvZTglBPUqrp+F+mu4z00dJWnzfW5vioGOlLTtoCkvm5AGQJzE0HpMy69+rF6xZ88+e+qpp2z92u124ni114MZEhmkKCOkdJEX1pBiYXMapFg3+Yorl9uMmdNC/28yzQ9iQ9yw3pTe0X8cxC3U44L8Yu6kGOBISdsOmvIkVc8greAT4/MlWSUNkwkBFScqbPu2ffbyS2ts48aNxnhl+nWdgPo5zUXIbDaMvCovK3OVedHi+VKZl9mIESN8lUfss9Ij9eI4Gd/XrRKBmbRgjal6nCIlbbtoQjrqF5BLWqmp+UyMl3RsCJtz+eqNGSYY5NmKFSskeZ+2iooKH6wRGqnyVC+uE3ELrKSYbiI505SRCl5jkydNtrfedadvRo1UhrxIVqQue+MyLprNvXi/ML8o+CHFgEZK2nZApLQVMWHaXaGIi9qLKG2SaiupKAnM+GSGOVacPGUvrnzJXn75FV8AvbKyxsnK+GQatZzobKangoG6K/XgefMutptuutGmTJ1k5eWqH2frnawUDkhdX5Oq3S6iFAMJKWnbQWgKagO6yX2kJ8RF/lK3RYXlHn2v/lz13r17Dkhd3uzL1OzaudtbnpHGrvKi/qrezCQDXwFS16PHjLKLL55rS5cu8aVvqO9St+UjdCMVwO4UAx4padtBqIkmKnErtKjNOodTIiutwUhOJ61OUaHz8oq8tfnE8ZP24ouv2EsvvmwH2XpEhIa4LfXeMBEfN5Cuo0ePsltuvckuvXSxzzzCBmpzgw/MAPgg+KHFh/EMB5Nz+SdF/0NK2i4BJAnRyP9AmfCfLiPUYfp5jxw+YmvWrhWBX5QUPmo11bKFpNXzKH0LVYflHALPnTvHbr7lFtV3L5IbrGPFdptBXQ6SXf9VQsRF01HRGRft50KeZfUvJW5/Q0rabgaERaLScswgDI4HDx7w1uZ163bY9u3brbamxsmH2G6WoBLBjMiiZXnJkiV2+fKlNnbsUO/3LS4p8FZmyMsyrv5uJC19ubRw+489h9Lk7W9ISdvNiPNpqf8GaRpWt8hm8u1ERa2tXbvOXlixwvbtZz5uk+8nxBt0KUF2UF4+yEaMHGZ33HGLLVgwz0pKi6ygkC6kOq8Ph4n2SHYZJ65IKxU5zxeoS5O3vyElbbcjLyGu1FhvuGIBOCQvqi173pb4iKqXX1llzz/3vLc2nzpZ6RMKaIn2CQuSusUlXJtdfc1VdsMN19mQoeWyQ6NWg/cBB0DaQN7wP03a/oiUtN0M+EpjE8QLQpcmLt1gFpGuYsMVFNu/74C9tnmrbVi/wXbu3ONDJRuyoU4aJy8w8IKRVMwgmj17hkiP1A112GZVmG9y6f9T9DekpO1mBEIqokVayOvQPQZv+Bx4EYupfYxnps7LShgVJ07ZqlWv2ornV6r+e0jP8hPyQk5qvY02Uury9ddfazfedJ3eo/uJkgG28sFQMKAip+h/SEnbQ2CYJIuih6VpMKjODI/Ms4xUYtTc6mqmAr7gC6RXVJySpA2qNnN22TAsk6m1a6Quv+3uu3xyQmkZS+UwIylfBUHW115O0f+QrlzRU5BEbHKpGEkLdBQpUYUZAYVknj59usw0f1ZfV+8rYSBFszoWyc7Onbvs6JGjNnHiRCsrLfNnSHJfbD04mqKfIZW0PQRUXJe2Tq1IL8laqcKoyj5mWb8s45vz2fDLbPWqtfb008/YFtV76c9F9WaGEAUArcr33HOXTZg4XhKZXex1W/dT4vY/pKTtIVAzPaPKqZQIDVYkCf20RbonCSupmlFdt7x8qJ04XmGPP/6EPS2VOat6Lo1VjJqCoFOnTbH3v/+9Pn65rrZa7yeOpuhXSNXjHgONSlHK5hr9l7SlYSmbzXr9la6istIS7/5hideZM2fa6NFj7ciRY1KZM7Ijiap3Dh9mckKljRs71oYNGyaXGDXlTqboR0j6ClJceMAmGoowpxO4qZGxyPTr5oXVL/IafcsSpCmqMOOQmYf7rne9y2bPmeOEhbhFRaW2Zs06e/LJZ7wVOrZcp+hfSEnbQ6CXNs8aEkP9levESDx6woh0TMej64a6LiSkrtrYxPDEeps0ZZS981132lVXX2Jl5Yy4gthmq15ZY6+8slbnJZbJMJiD1SDZFAwnW//4Is8L/DxF70dK2h5DQtAzTJC34HQKhSeBaKG7qKg4z0aOHGI333K9XXLpQhG31Lt6qAM/+sjjdvDgEdVrWaIGUub55ATJcG+1bjZ6GkxK2L6ClLR9BqJWGzN26B6aPGWy3XTTTTZjxgwnIF1DTEpYtWqV1dXXh4YtGerGYUZQir6MNAX7HKJsbAHDG2l8etObbrcxo0e7igxWrnzBDh065GSFuHQPIW29LzdFn0VK2j6HSNhAXn6QlsEUF118kS27fJmv+MiKjgyB3Ldvn08PpJ7Mio/MHmpN+hR9Cylp+xROJ2wwrJYRuoWYl0ur8rjx4/Qk2N23d18YRSXSurT1Obsp+jJS0vY5JGRNun8cru2KpiLkyJEjbPKkSa4KQ9JTlYxZZuXIMMUPk6JvIyVtn0FC1mbE69DA5MeCMO+WbTY5h7Q0SjFIAxTIXkravo+UtH0KrYkrRCkrNZkjjUzMueWcVS1CI1RoZWaxOW9JTtGnkZK2z0Gkc7W4xfhCcDpjMXTWjmLjsLi0zdChQ71hit0QfFmalLN9Hilp+xoSydoCSVfdY3e/fJ3U1NTY8RPHmxue2KWPebU+NJKZQ0yWT9GnkZK2P4CRTZKidfV1duzoUTt44ICrxaFRanIYCSXSQvi0l7bvIyVtHwFUy88rlMSUbG1UfZVJ7nmNIif1WBY+Z6WKIlu/frMdP1Zt1lhos2fPtHHjRoqwWbfPtHjvp22Sa9Egqd0EFTtF70dK2j4C2o+YP8sKjd64xE8M9ql73vCUJ7KesJdefMXq6xutqKjMll52iQ0ZUia1mH7aYD8/r0A2c3+8GUh7utqdorciJW2fgYiVz8AI9rINS7AWFZZZcVG5NWTzrbqq1p56+mk7dPigSN1oS5deYoyQYrE4pvhRv4X4aY9P30dK2j4CyJZfECRrUWGxVNsCEZftMJuMbTbXrd1oq15Z5eryxElj7Jrrlvs2mQyqoLsH0tIV5H22qUDt00hJ20dAP2xjY1BzIWFGkrapsUDqbqnt3XPQnn76OV+5oqSk0G648SqbPGWs26VFGUBWJsun6PtIU7GPwOuekqKcsMQMddP8vCLbu/uA/fjHP7ddu/bY0KFD7I4732RLLltoRSWMlKK2KkmcbZBdBlmw/EyqH/d1pKTtpfBGIu9rpREK6iFZw/0GX4qm0LZs3mY/+tFPbPNrW2z06NF27XXX2LXXXuUqMrvrMZiCZWugKTN9cMeR8rZPIyVtr0NgFNPoIuAaDUp06TQ0sOZxo29S/fP7f24bNm6wIUMG23Ui7Jtuv02ENSsqZhlGZ7vXY72fNpGyqaTt+0iXUO2FiPNfGY5I/ZXrmto6HSFtk61bu8F+/JOf2fFjx32Y4t13322LFi8QYRuttKzQ6jM1oj712WIdU5L2N6Sk7XVAGuqgVIG47D3LNLusyFpV1WArV660FSuet+PHj9tFF7Hp9E0+iIJRUdlsxsrLS622rtoKJZl9EEVK2n6HlLS9Da7VUoMNU+mYBJDJ1NvRo6fs8cdW+hIyjY31vvHWFVcuszFjR4is9b5gOXaRznQJsc8t76fof0hJ28vAGGHUYfbpqaqscvV427at9uSTK+zVVa/blKkT7e577rRp08ZbcalZXX2l6rSDfKeBoqISr+82NbLYORMI0lFO/REpabsQnY5IXnDtNaiwqLLcYjaOD/DX9aZNm0TYJ23Xrn22aMEyu+nmG2zylAmSvtVWXMJwRnYhyIjoQR2mbbGpKV9Slv1sM7pOk7e/ISVtF4FI7ExEUm+lO8YnrItsYaMtumWo0xb4ihMrX3zRfv6z+23YsOHelXP55YuttLTECUqfa3MXTooBhZS0XYTOkha+FRUVWW1trUiab+Vlg6yqqkpqbYGdOFFhDzzwgG3cuMkWLVpk115znY0cOdwGDy4OJJcEZt0nn7GTtjMNOKSk7SJ0lrSMaGKQBMSDvJC4pqbaDh48KHX4adu583W75pprbPnyy1WvLbayMklYHzTBShV6z6VsZ76Yor8gJW0XobMUYqAEdU9Iyy9TX29r1q6xZ5971spKS+222261KVOnWFGh71fpEwWYExuWkVHCSb/2rqEUAw4pabsInSVtY6MY5zN1GkTYOnv8icelDm8I/a6zZvk4YlZUhKwQtLCAJWPCelAANZovch1WY0wxUJCStovQHmkRhvF+i2TME1EhW7Gv6fSzn/1Eddsae9vb7nKysgyqT3D3Hd3z3NCiXJBHizArTOjHZACRmKl3BYUQOMVAQUraLkK7pBVRkZSxoZeGJIhXW5O19etfs3Xr1vgm0ZctXeKjmRj9hOBkR7tcV52oUqdTpEhJ20VooVdr0K1TaA1MPheBUWsrKips7dr1lsk02Ny5c2zUyFHGGsVh0nqw52gmbjhNdq1NMcCR5oJuBt051dUMhCjhyg4fOmQrVqyw4cOH2lVXLbcROhYV51v54HKrqq5MiJrAB0vkmhQplBNSSds1aJGJpwNVOPbH0p3D8qZTpk715U2DdNWzujqnZFlZudXV1YcXWxGVsVJhvFSKgY6UtF2E9khLy251dZXIetDHE48aNcqKdaTeyvBDnjPQ3xuapEbX1ydDEptJG0wgbYPOUwx0pKTtIrQXiYxyYue6wYMGW3l5uZPUG6ZEwEDcBpfGYa5sowhd4jN0TiOtq8kibV5K2m5BZxhAUvQwUtJ2M0KrMSOYFNkia0u3D8iN+vZyQ+79NKm6GrlNCB2Fl6E9iLQhqpsRu3zoaz2dsIAb0bQHclU0KboaubHbUdPTSEmbYmAjt9zsqOlhpKRNMaDRliQ9l+lppKRNMeBBHbWjpjcgJW2KAY22JOm5TE8jJW2KfgVfFK8NE57JNLbQjr5xNtumBZltQFkIryCPM1VdseYvNDU/d+OtiYwlpwsO8YuV5PwCISVtin6OQDI/89NAOMDsKBbOcyLqXmO2IUzYkH23Kn0YEkNmrn1qJERvCtMhsUUfe3AvfONCICVtin4LSAUfAycDUaNEjKt/OFFlmkTGPF27hBURDYmsY0Mma5m6ej/yPHTdBeNU1ZFJINy/UEgHV6ToV4jkdMo6YSGTJGYBq1SG+cdIR4iGlNUNJyXDR1lfmudOZoir98rKSn18OMvauikqtDxJaMaI+1xmuesE1mf9UxcAKWlT9CvkStRoQFaSsj6TsbraWqusqrSjR4/akSNH7PD+g1Zx7JgdP37CKk6c8BlZWZERsNRP+aBBNnz4cBs7ZoxNmDjRRo0dbSPHjrERI0ZYeVm5FZeErVf8uylpU6ToPHJJG1ika/0dOnTItm3bZqtfXW1bt2y1ffv2+dYqmZpaMRrp6q+dhkh4X/lSz0tKSmzwsCE2ZuIEmz9/vi1ZssQWLlxoI0aO8G80o5vJO2BI29lAJlvB9ip0Ngy9pV/xfBDD3Doo7LfLTSZXQC7ISuNQQ6bBigtYuL3Jp0Pu3LXLHn7oIXvppZfs1MmTiVqbdftIyMZsNmlcCl9yovpf+GJ025/rFt/Nl0pcKJUZM3b8OLv5llvsxptvsjHjxlkDjVRSnzHVKhDKRPQ8NvR2105PQ+/7Tc5zEe22hwFB2hjAjgaUSHPS9qaYaSeBz4b+RFqQGxwWdm+QBCwuKlZ9tN5JBWmzNfVWWXHS9uze4ytbPvP0My5RfRMzqcgg8DK45oSMX2k+cBJUa+wml47QZpy0GuteVn4YNmK4TZ81y+6+9x6bt3CBFZeV2PBRo7zOS0tvPo1YOuJMbppE0iafdcTHOdbOQEraNkCE+RLDvQz9gYSdBcmAIei5wc9KekFYyFhUyLRGSUwRacuG1+zxRx+zRx991E6ojgogZqFI7lLUSep3OQ3nuu3PuMtzmUDYlntY5E0nbXDA50FnmxpcuuapwFBJYrff8WZ757t+xaZOmyYLoV+3gJZp3MEEJx0pac+BzgayV0lZkCRwZ3C2hO8rIMwYwpIbniKpwJlMxvtQ62rrrLKy0h584AF75P6HrOJYaFCCdBCOecr+rv45GfklhMyy6qXpOfeTZ5AzXjcjRj4tzw1NVlBY6KTLUFjoG4XsWqh7kHe86rwf/NAH7eprrlHBovt8V696WHKd1HkMX0R8nGPtDKQNUe3gjUXK2aK6NTr/hdwEPyfkPNY780pvBLGEyQ0LBap32+hOjch5UnXV//j3/7DHH3/cCrJNlq1j4zHZE+mi1IRYuvD7uZHSKEb5EtTJM/+O6q0Q19/lB3n9Tz+6gjJIVklQBmYUSiWXtM9I8uNCrO8OHzHCiXvbbbdZUQnEpTDQd3K+nZK2i9E6Ms8NovlsUd0anfxCksCdQW9sTOssYiw1x24SpiYRpTErdXjLZvvKV75iG9ZvCEMQRagC0RnSASRfJGR4UX86JndMerPkrHgoqR1biakb0yfLkXcpILwOK6ksmlpJftj1gYKgmYQ6R112sie3xo0bZ+9+73vsLW+70/uEuZ+SthWIcB9LqsimcOQ6RgkJGhOAO2ERcNYgpjQVkn++Gx33lAC86wkjw2Ovt3Du7ieNEdiVW3rN70U7+jst0d31JCX4Pufx2pHj1/Bfz/lq+AuW5R5LsTbqY7RiYg//hsfYQir4pb/ThBqnkp8r3sN+XHfZ/SqDP0GQBLrgOnnGQxp7ot0LDbxCKywNTcWqt+IfpKs3PGUbbPWqVfZPX/9/tn/ffu9/Ja4LJTbzxYYGhZFhit44pXPizFXaJD0YJJFVnDQoWIOHDHGCjR8/XmacjR492gYPHuz2CTf2qB/v3rXb9u3eY/t0RLrjfobGLbnJAIws6rreIfIZsIEb5YMH2f/3Wx+2G2+8wcrKy90fMX6pCxPGJAkcMZbPFtv9TtISGSQMhtiARL5Cf9I1EDOfP0/g5EuufZwp5FBJHiOXhPf3ZAc1iCOIKheklRP+vXCLkjlxTyRB3QKBFIHQ3NJrOg9+jYUD3yIDYCnei37Lc7eCnzxDuZvuTe/6wL6Po0386gWKvxi+E9/lGyFMsVBhlFCw62GSq9EOhjphLBwuJPAJdc44NthbjOsz3gC17tU19vd/+7e2b+9eq6th50EKTpG2SZJQz5Fip1TPZfBDIQ1Vcqc+I/KXlroUra2r9VUxL7t8mc2ZO8dmz55jEydOtEGDyj1ecM/9oISNhTRdSBXHj9v2LVvtkUcesVdXv+rxV1NVlex4KNVYdW0vAPUeBWuhVOOJM6fax++7zxYtWuj5B/UZP6SkzUUMUQy5rlsiQ2f6i2SIiQOaz2Uf8jZndEpPoVElKY0NTYr4OpX22WzG9+LxY0Z1Kc7pA1TmoSDI+PPQD5gL3A0tXUrYhBgtBlKFIXaQNxgRVIkMacmAYUge/g1+Dv6OhKQACUSMYQRkeH9BgcMeJI8FU/xuQDzqPV5N3ukJ8FVijnoiFx7/IsLmTZvs77/4d7Z182bVMUNh44RVGAvywhBDyKrQeyHkdVZ3q8kGSfotvuQSu/qaq+2yyy6zMePG+uqY2ENSUkBBKJa3JZ6IvlAIN3rdlWQrLSnxOFu/bp099MCDtnLlSjt88JD7g+cuceVPyNuoGzWW9brtxz7+ce/Xxa/kEwoDChf8FoEbuce20G8lbSQniUC3QDFkS+4T4Z6gtCoSsTFRpOrU1dV5iVxbVW2Vpyrt1KlTvgRqZWWVn9NKiR324KlTac2RlspG6Vl8y4kg8C0SGXc95ZN7bnSep8SUN5qBP+IRQ8aJpOXcZ6QUF1lpaZlMqRtWd+SIGjZEKt7QoUMlKQa54VlRaYkv2xozIIYCIQwu4Fto3EF95oZLapE3SmDuuerv3g9huJDgi6iv3q2jeEAl3rl9h/2/r33dXl75ohXKn1lJ3hKFEXW0QAFi+9CSklKrqqm20rIyD1NtfZ0NGTbUFl2y2G4VeS6eP8/Ji7oaNBM0orAfUghry0lz+PXP41Dxhert1Sild43yyfq1a+3hBx+ylS+84JoA/qmprPY0g5SZgiYbOmyYfeAD77d73/EOzxOEh0LEnfYvBcj6ace20M9IGyQNEo+oQLp4SUup5uqrgkoi6Ui9iEXCWUCczvcD+/fb3n37fDxqpchZcey41VTXOCmRpDRUMKjcVR+PZn3Lz3FO5DcSXQTQPb4b6pIBJLYnvCOcNDZBaFo5Q/JgJx5dyvtV+A5H3qd7IZ6DXIlARkViYIYMEYlF4OGjR9nIUaO8vjZmzBgbq+No3WOZVpescsfrWALk5V38DmFjNaBQUj4WNhcafLFeGgOSlvRrUBp845//xX74ve8rtvMsU1sn6cocWK4EEVbVeK931CvNCHuNVNpBio93vvtdPmpp4qRJInSNSDvI7SCpiceoEZG2FGykH1LdC3QKfh39Ws+Lykr1rUarUgFerkK0MdPg45e/8c//ar94+GF/Jh+7n5DyGXmeOjSF65e+/GX5YWKITwoE2cmNWQ9HzrEt9DvSkveDxMt6HQRCHhcBj0h9gaD7Rc5DOh45etROnqyQlBQplRnIpJSAEIZEzJMbRJxHPSdJLCFJPRNzoSN1S0pWdsArLChqVl+dUCpNGa/Kcz93Ukn6KQGLS2SKQ0MJbrCVJa2PuYnlX0m+y3nsWiCDucHfMqiD1NEIL4URmkCdpEu1NAaITiFGvJTo20ifCRMmyIy3aVOn2XgdR48eY6NGjbRB5ZLQLqXL/JvEI2E8zVMXEASd5jNX+RWGlStesK//41e9McglGnVXwgbxCCAvKC4hCtoCEvbSy5bYr/3Gb7h0pXqhBPbGLaQl8a0TN15Yco0zpK/c5AdRkbb8nMD6RL0KXAq3UqVnIw1Reh+JX63C/t/+5Rv2wM/v9yij8Y93G4pCBPLND3/kI/YOSdsi79eltTl4OyLYPHuUdwtp0esxzSAidHDJpBNUBgBJXAop4zIcjJxFvSSqlNHjrsLgAPc4dwdxS1JU72UUYYwrhZyHDx+yfXv3SXIe0PVRJy2NBCcrK5pVX9yn9CTjU3eEiFHi8B33kz6BCsNzDFt2DFbpPHjwED8Ok7qDStqilg5xQtKZjkrqx+R9SElh4G6JsOwg4MFQFuBbuQbE4xnSTffd74nB33EcLeSlJZMwobajRdSKwNWSKqj1FFCo9rU1tXZUUsHt6Jy6Ff4qlaQeNnyYjRgx0gkdpPNYGzN6tKuSFDie0RSOEO8hvtBk8C/3Y9UgqNyANAp+JShB9Q5h6zBEGs/8ev8Lf/pntuKZZy2rQopriEp+oeWYMPCNhmLZVyIS5wxu+OAHP2hTp031NoFISuIRf3jLuH5IRU9/olvPuRePzWmQeJurmH8hNunKhylUIPjePXvsu9/+jj3wwP1uGavYIZ7KVShOnDzJPve537G5F13krdpekMgvrm7LLm6QL86GbiFtgb6ZhMvhAZUhojyxdUTliQlvysgZRQANN16BVyCpr3BkQDd1zbiigJd/yhuN0oNodt+xY4dt3bzFtm/bpgjb62pureqYEB21KUSG3M7L+DFmMCeQDPXRCIbDoTZBxFHjx9mosWNsklSZ8ePG2yhlXqZoIYUgMPMsKc3JiDHDhFCGcMaE9xI7JnwOwp0z758N7mZr8Bl9ry0gYb3Ak6E1E4JCbOaNnlJ9/fjxY3b0yFE7cOCAHZD2sXv3bjsmDeSY7kNAwkuL6oIFC313v2nTpnsBhVZAgUSGi6SNfqAQIeNBEKQ/BRn1btxDC4j2wpG44Yp/Z4aBO/lKQ33EW4k//fFP2KnjJxSwRleLQ5sE30zqiDo/2VBjQ0YOtxnTZ9jv/t7v2vjxE7wAReJ1JwgH+Yq03rRpo/31X/+N7d27x2pOVVl5Ho1iei7JWqK4+OSnPul16zi5gHzEOXA3nLTt541uIW3uYHs/KL44klAQ1bO0EpwAUtplFemFlOQiTUYJG8eTEs0kNhmuXvWXI4cO27bt223H9h2KmNdsy5atnvGY9wiQuGQQfcSvIbtLIr4uK0g53PUpVpIebOA8ZcpUGyeCTlJdB+nCvEmkTX5JmMXh6o38EKQIPqJ0VUQrct1viuxAXhUpenx6puxCKAhtkd/RzqcoTIjvaByeENGtUOBwEwlNOGpqql07OaS43iMSM0uGgpF7vEOdeNas2XbRRXNt8pQpirvxXsjpoTe8EA/NbQrSKIh/CorTC7eOgXzi9Ui5t+L55+1PP//Hrg57JUJ5hnzBN/hmHE5og4ps8vSp9on7PuHT5rBKlSWgEx/vJIgbPh/Cn7Gf/fRn9q1vfcuOqVAsaQyaB9Ub6rZ333OP/dbHPuraQJS07nf5NRZmZ/Nrt6nHbQEPYXhMJgqST5ldN1BS8Cj3SahqqbRIgf379rkUhaj790mSHjjoUqKBSFIJjFpDhCFRvMRSIYA6wncg3TBJhqFS+8aMH2Njxo72kheVj0aK4brPHjsQHSJ7XRZ3lME8ixN/+gcxAQnintd94jh2q/h9txwCTmZrRuLGmQh2OwO+2VHwRcIRM1Ou3whjiDfCFK6xxzOvtyXaAYRjXG9VdZVVVJz0qseRw0ekXh/1PXaZVE4dedy4sV74UVeG1Ggi1NvDd0GSzkk0tNwPiN9vjWBdhJQfnn36Gfs/f/7nPkSxVCR0dTQhiBcOFJ66HjRqmL3ng++ze++91/MH6YrbzdWfbgMCiZUswmAQ8u5f/p+/tA1r1lthBuGkeMUPCuslSy61P/yjP7IRoyQcZD8wIcQDcRSuzoyPiG5riIqO5mZXIi9kcNRbIpnKf6HVV9X4KBYimHrXdknTl1a+aOvWrvUpVp5B6uvcUa9DyHgroRwPkiJIZEor6l1jx47zusPMWTNt3sXzbKpK3sHDBikzlQW1zjNQUNHJQUgCCgsinMyGH6Mqh10QBiAELSEGinPCEOyEjK6/BC0xQEKcN+RcSMy20PYHgmoczj3jknEoFBU+D7/8jZvcI/58YICe8RWvVugdTy9u4JTeId3oo66qqvTGvF27d9nWrVtdtabNgEEKlyxerDrbXG+xJm5ogcct4j7W77gGsdCIg1Fag3yO5rXy+RX2v/7nH1seo7x4IPu4TRsFKifppQDZXe+8197/qx9QwTymOWzYC99r+xtdBfJPGA7Z6ILg377xb96iXNqk+9Jk0ERou2EFjM9Jdae/GPUY+/jd/el+PLtfu4W0XqbFfCTXc079nISPLaw0hmSqau3Arr0+//GVV15xqUoGcMmnyEbdItLJg8S9NwQo8Z1kIukw1b3IJBfPn2/z5s2ziVMm2XBUXH0DaQDhS8tKvCSOdTwcwj+ohbgTMxMZhG/RgR7VYr7p0luGUPA8Zrp4HtS0RGL4X3hOiPncGTjNTgdwFvuxIGwNH+Xk3z7dD9gPAzAgZiBxUGVpmBH0LzzDbp7IVuzXSN4QVwXeOo26hwSBdBSeLOHy8ssv28aNG1wbYjjgggUL7OKLL/IWak/PxO3oN75NZvWM2waalNhUtw5I4/r0Jz5lp5huJ+KSTpAAeCOTzpctv9w+8dlPe59saWmJFxYUFCAWUN2FkB9aNAby99q167zxrOLAEcVdqL9C6sGqln3oV3/V3v7Od7iKDJHJW8Rj8GM0baN7SKvE8M96Bm7yhguHLolsRuPQAESd6bXXXrPN6zbazi3bvUGknpZBeT6oaSFDkLBEOigtK/UZFOMmTvA5i7MkTalbjVG91BtJvCk9qEv+vt51JDo7GSVEbngOIuEiQZ3YOuEV3grvJEjuAfwGCOeZdoIt0YV/XYP44VZo53biP/eM23FvtOEX93+OP4kDEO2jZkaNIlcCuzV9g2viLhQGjZ62R48c8catw4cP+zPSZoQK1zFj6V4abcVKp5C2oUriecURfRqPSpdMgxUpD/3D3/6dPfX4E3ZKqjpPPMOrIKGRcPkVV9g9b7/XC+wS5RFvF9E3aOfAckyr7oS3JouYhBdUnKiwr3zpy/bUw4/5NaTFv/QuvOmON9unPv1pr+OG+mzwH4cW4raNbiEt9c1ilXTUh8gBlDo0CtFgVFtdo5J4oz31xBO2etVq7zfNVku1ybI3a7HbDappvtSeEpeUlE6jVFeaO/ciu+yyJTZ77lybMnWKjVYGyNc7yimh/5I6hb6BJPZgN6fT2SOhLfSHGTLdjfZiNVebIZOePHnK9uzZY4cOHbRjR4/5mkoLFy7yhj8yONIQwtdLuyLDItl5PSOyQjZv+NOHDu3bb/f//Of2i4ce9kXYygYNspkzZ9qb33KHLb/yCh91FOqNnUvrrkIofDhTKERgwnb/z35uX/u7LymLJoR2/+XZsssvtz/7wv/2dpfm/KqX0Q5DG0r7YegW0tYroVCdGC1CxicxGNT9ilSnR37xiL380ks+BKxMej+jStjgnFkckBXyIU2RfiTmrDmz7fobbvBxohMkXQHkZI4igcTztAojUVHVAtNQM3LR+SDijDuVol0Qq23FLAQk91Lgco5ajAQOBC20gwcP2apVq7yQZoE0Wp9pb3D1We+Td5ysuq6rVZ21uMR7FShI6+h3ViFA3y0ZfrgKALSrGuWx8kHlers9X3U/WtoI9F/Ew/+b1m2wP/jt33Ptw32mACJZ56g69/f/8A/ekNdMWv2CGz1AWiQtiUXEnjh+3DZt2GhPP/mUT6U6cey4z4WkPxbVhVK5UCUrHc104A+T6otUpW66cNEim6GSlJUAPEGlouEugaPEgrSutiWZxNVdudcVZEsJe26EjHYmPF0UgT67RmlNCy9qMISlbpdVviAd6UYiM9MAOYhx1ElhzTvEPy2rhYXFXugrp1uJSMrII6pbuEG6e4bXEQmV8XyFqt8DUETgHxosyYEUOuTNY4eO2Kd+8+Pe6o6wQUVGuEyYNMm+9vWv+bRAkSCoyIJL654gbShVG3244He/8x174fkVPoyQiEdFZtgZJPOWYAWwXgQsV+X8kksusWuvu05kXWjjxk/wFjgCQzeOKOqqL25nG1RPSaqqvB+mQYn8SnCek2g9knADDGSctjIP7QOkABk4ALUxNGz58isiHVUeyBn7iWk0Co1ToVGLalJwg6VlCrytg7wT13pCINB2Qb6gj9bJy7s6NmeNCwz8RWGC/5GYqOqVJ07Z733qt71HBNLyDIEzZuxY+6pIS/sMfbVBSwwC54KT1ktZ/V5cudJXFDh04IBvqUC/WllJqc+egWAl9LUp0RhtdNk1V9l1t9xsFzG0S/eQpDQmEAg3ygR40vtglYChmTw0fFDq4r6X3v5lvYLRCxzfKDxSzseBAQDiqK3MQx4ArhX5Oe0aDN3M88EbFOix+y2SF7sYWqhra+u88OV5WWm5F8rUawuwz1hxpTUzdKgv6yWTeA2DK/SlAhEfXawnQFDxN41s+JF2mepTlfaFP/wTe3XNqyFvK09B0PETJtiXvvJlGymtkkIstsKT99uP2YAOFUphj5NgcKzZWf8ICFSha+ZURaX9/Cc/t3/80j/ajq07rMknpgR7zK5ghsTQUSNsyqwZdve73mm/+/k/sF/7yG/YoksWWWl5qZtBQwaFeiruU0JDUH0CspOAPodSfmEMar3qyl7q6vveLZP45rzRJY70f8T4zjWkE0dPK51DOApoJjiUlZb5tEGuUXuxx3PeIR3JKFSTuH+yosKOHDnsBMhk6622uso/gBrNNec+A4v6ri48jyY58oLDP0u1kDwbyKsgeUFUVl6m4+mt5NznOsRUDjrg/XOSlojIF3EwIUKCoVvHhyLiET2BsPV1GXv8sSfsP//tP23Ha9ttWPlQq6vNSLenRVf1EL0zSvXTO+692z71B79nv/apj9ucZZdY8dBBek49lf4qud5MVCY2o/KoLqtIoMcNw+LPBQ1NVizLorab0OGOHxPohFLtjZoU5wbR1J6BhE5e5R8nb3IPspJOFLBck8M9X+nIPQza0+BBg2zUyJF24vgxq6g44XmCvMGk8gamBOjI9EZZR9CqIJfq6W71HJyEMqE/W3k+UfdD63iLz6j7UgfnPvXeSGTgrd85122hQ5K2PYRGBtSA4NmXXnzJ/vNb/+kzSlB/KquqwgoC8ggD7d9219vsM5/5jL3vfe+z6dOn+7uUss39uClS5ABpNG3aNF8CJqrQ1HXp5+8r8MJK/oaHSF+XsLpH4xttMADSNktgSiZx6Ww4L9ICxDv1EjqSf/iDH/gkcuoswJvlRUiGlN1779vtQx/6kC1dttQbmPA8hKZe4nWTFClaAUFAw01YoaPMMzYFvVfQzi6Meg3gYqy3Q1r8Td5nBhUNqx6URCKDeDwbOk5auZUbT9JOvNvGW4N1/tMf/8S2vLbZZ2HUektgGH+J5975K79iv/Hh3/AJ13HiNg1KeDbXwylStEYcbhlMyIE08Li46gOggGFIrrNH+RzyUvjEYZ3RTmc4cE7SejS1ImwE5MNAUkY4sXA0s/m9TjJ4sM9Nffe73213vfWtXq9xdVgqQfQs7qLDQ9wUKdoCeSX07YYFyJFSfQnkeybBAHgBQRlUMnnyJIWNsIQBFTFcQU0+Ox86FAPtOUFdlZFMG9dvsIMHDvg8R+obqDSULssvX2633nqrj1yBoXjO+7DkWQgMmgmcIkUboOGKPENGRxgx2eRcmbqngdREbkJQunlYrAEJC+AA6j7zt7HnHM0RsrxzruC94WKL79DRTbP9kcOHQwVaPghjdvNs0KDBtvyK5d4HBai/QlbUHDzqiaCfS9lOqAYpBhZC62rO5BHloV5ZnYpeUname4dr/Hk82bAaCcoic0hUhm1OmTzFtdSIqDY73c8RvnOTVu9DfExEdJIme8YQox5D1iL6onSfyQElkFQe9GtJVa+TyC5HXMOTDJYIfowupkjRl0Fmzu1VyfeZawwooT6OoGKEH0v4jGQC/BtU9Tv2FpyKJgGNT4HJTTZm1Bhfy8mXsnTPFXkr8tq1a30SAJ718aMiJzMdUInxMEcnLKI3RYq+jiQfIzExjNrb8frrkqgtVUHuTZkyxaWta6dvAJ16qzW1vCNc0nX2rJm+9WBWBOWaiQD0Q/3i4V/Y97//fVefuSZQ1Hl57k33BJIAnuFyihR9DMrCYdA/k1rCDCVWAWWpJBqcXDZJywyNUJNDH+0b1DDfGNUTIC35OP2wl156qY/wAHiSFjOWAvnZz39uf/M3f2P333+/7du/z8nKEEXgqrI8HqrtKVL0YSRZmENoDS6w/fsP2LZt28N9tEwRmU2+pk6d6tdvkLNW8Pnf+fCfJOftIFCKKnLwUvIlvihVGNIyEx+puXbdWi9dWL8pdzA4E6CZQLB16zZfg7e8rNznSCpoXv+lBPIhb7idOA9ay9/zkceuzjf7/1ym5dC96EyILoiHhNx4SEz0JmnefB4OXIYckvMsQUjRxGKE59QW0+Jcy3Wze256GXLD2Ib3IGPIy2Yb1q+3B39+v+9AwDWLOsyZO9f39Rk8ZLDbdweToDYlx5ZYaRsdIC1IXDvNhMnojD/ONGRs0vQpduzkCVu3ZaMV5RVaXoMcR2cXg/PkG9Vg7dD+g/bSypfsiUcft9Uvr7ZD+w6qDpxnxZK8RcUFIjJLkPCKXpaKQcthIz/GmSamKT8o065Zu1f0T/Y4co+pWt56R6ujflxjUbVo+brl56Uh7+JEG7/myOw2EIrYfdERA7rVQ/oM7p9pUPtcMkiz8jhWYU2KehrIhse34D71f3pLxicC4IbcdZcU54xVp8PArekm9/J4P6YfgqCwKLgryUTLcW8C4aDRlRPOPXgcBeKB8PpuByLqw/c/aKtfeUVVxjDPFs307nvvsfnz5/lSOF4x5H0ZX6JJJjjafGgTHSRt2/DWYRmfMlco0T9xgkvaA3v2ScLSUhw8SqAY3A2QyNRpjx09Yptfe80nxq9e/Ypt2LjBFxqvPCVJrXpvVDGQ5KgVXrGXmwTGyeYxpUB7BgqB5H6YZcH9JLFlzyc9yEZQSYJx92Q4bxdnedR1iL4/lwHx2D2AUJCnzU/rJKQj/xWHKqx9VhVE5J7fT4ia5AsKbdLBJwkkCF03Ie/ww1HskA5xwgDbnJDmjJ7LHWjfG4BvvE4ZvZUcCT1eZeguPSpVpyrtBz/4vp04eszzLfxgB4cPfPADNnrMGO+6grT+Lm5E94RWl2fgvObTEvHM7mHJDF82Rp5A/f2vf/+OPf3k0770aVaBICBUwFGXSWCGPkJKEtMTvFAZIuivvlkSC7VddPFFNmfOXJsxc4ZPGGZz3kg44AtkSQUnceN93EId90DLb9zzriX5sbgwTPfSzSRC+B+I2xY8QhM/dQ9wuzPue6jCaTeB4i8Uga1AHCneSG/OvftOhvjGNunJSDdAWhPfFNhkVgpS0ohBOGhOrFBCjwLGCax7SFSqWO6mDINxaLhktgy6Um8CWQJJ6xJS1/EIECDoHLVVNbZrxw774//5x75dDUIKyXrtddfaH37+817gEQ/OciFK2ehOGOvQPs6LtKRlGIpFYoU+VzzemGl0Nfi73/0v27Z1q+8OwFYUnnD+ojwq+xDa3ydD6AixKe0hpEtV3WMfmXETxvsIEmZ8sPoiY5iHjxjmawLxjktzuUkGYfQM78dJC17q6z7LbMZxrJ7ZuCfTHkIh8oajpgOQ250pFEjVsybl+SNQ8MxvcMd9SiTHeNM5UpEHSETuQU6kK8RlIMEpFdoscs6Cbjt3vO6aVIUyMdqYbxmavMfOf+VK59mzZ9nSpct80yzuswxqWKiNj/cOnI20xAm7+zHH+7++8x374fd/ENp4JDjIs5/73d/1Bd0gqwuLhLSt3epW0vo2Hon09NFOlKxKSAoRVmJkl7o1r77qC4+/vn2HHZeqkKG/VuRBXaUkdbmnBCIMIHrGVWIdCRyqBe4iWSHx4CGDbMTo4WH7Rknh0aNG28iRI73vi6U6GffMxGPPRKhrOkrPDt/hp+/jZ/c3Ga8NQNo3HDEdglzvZaSNOkhroBURG16QyooXkrqPGghhGVyDhnX40GHfEYLjwYMHdL7f9wby3fyU7qzvhHblhSdjznGDD3jQwmL1rOLJ6orsLDdq1ChJoVD49haci7RMmDl66Ij96R//ie3Yvl0aRZ2xZtqtt91qn/vc7/qqK8UKp7/rPyHHLb/URXLaJs5b0gJKSraMZHVFl2RKVOqjWZW4BIIV9DZt3GSrX37F1q1ZY9te2+KrDbBekCd8gzyf+N7JFIKidMQdeZ+colte6greOGVhudTYJ8Y2jbTIjRg+wtXpcTLsx8rA7DE6DpZk9t3sZLCPP6mLe51Y7rcY/3L4pp93PQgdxUc46yjwzBvzUPjeuRHKkJAWsVDDEC/cJz0ABTXbttD/vuv1nbZl8xbbtm2bL4fLQn6MO/d6KpaTj1NIu8Fxj9vgI9/eBbdV6KNl0R1Ine+3f+d37PLLl1l9oy994nZ7A84gLSYExbVHxik8+9TT9r//9E993ALLwRaWFNsnP/0pe8udb/GldHxKHu8n78XQcUxuNR/bwnmRlu4a6h9Buob5gn5OSSxXvd5KHQd7CgytaqyZs02J/Pyzz/mSqocPHVJp1KCMoPdFSt7xVmO5FSS3ElL1pUgyL/UVa9mmZAEtfYuPkbnICEhWgs+aO9xDOlN6s5MaG2uxWDbr7bLvDP3LI0aMcLKzezruQWjeIULdLbnpbgv4BX+0aAdR1Sa8KlA81kN0J4fTkcS0H5whepdz/4/0CRbak3istg9au+2kynE7PsevFEo4RyHq1nRJNcK/hd8pFN0uq4SQXqHaQlpQF4u74B87dsy77vZJknJkGxA0p7hdSwSuuSajb/t1+HzLudIU6yx7yjfq9S0sUH3xxi2lwUypyb/7e79n02ZMw7OynfOBHoYnGwW9/EW7CaGh4MGXPDui/PyV//sle+qJJ33/XOzNW7zIPvPZz3oVD60R+JpQehZDFo/NcZUc28L5NUQpswZyoDYlUlFoUKYgMzuhFEBUKCWJk086sUtX1OfDUp+3bN5sW7buUEbYa3v37vNlNckIZBzskQF8RIl+uOmDxxXE2HAFyLRkRO74t5Tw3CPT+nP5q0H2I8l5htRlvm95WZnvOetqtciLio16PXL0aFfXsBONX7MgmaoFSAQIznSruJE07uYa/fN6n8eDAE9IHg6eyLrt9oBu8iQWEG0BWdUC3NdB1l3V5D2ZQMbgFvCGoUQl5Ui8Ui2hhZYVEGtrw273qLDVqmfS6kka0IjI7BRMjeyw1CkqMKsieoHq6R4LnQA/12fjEXAe7SChqPPyblZ+ptpC2nCuSGpuw/jwb33EbrzpJp/aGbSrxLFeALId27BSyLBpdeg5CY1wFPKPPPywfe0r/+itxoS1VNW0+z7zabvuhutdMHicKc3Z1jVOpskNXYyreGwL50Va4H1TlBhkioTA3hrGMwLHuciH1CRTIXHJ6JAs+rYh22jHT1T4Rk6bRWK2CtmqI2vF0ogFaKHEEGj/ju55iX5akAVdeimoXyRB+FQoHbkm00AkSEcm9BjSe9gJkjasw8z2m8U6p+UPVR7VOq6iwBIobBJMQlB/hvzUVagicI9nNKQEQkPssPg647JD4SEfyrg/kIJcy6Nu2kgyQolmAym9G4WwE9c6QirIWS/JSIGH+go5IR7Vltjwg6muqXYisocSA9l5zr0w6SMUsLTsOpJ4wW+hgGopDCkAeB4LJLfnR3zKMRy4F8tXzp208renIQkjtxUBnmfYRe6d7/oVe8tb3+qLtxFfja4e9x4QFuVqBY+frhUvnBHfzCf/s//1p/bi8ytcyqJlLly82P7kL74ggTDE44p4Iy69PUfXSdSEuEuQe94Wzou0JKCX4iIk52HaFOKDtJOz+vNMqIQho+FZiEYAIS2BwJ5v6SG1jPfIGNilqXz3rt0+qgSzfdt2n+YUVgGQpCwIo7Dc/egPvef9X56hW4JFJBQlagn3XZUVnB6e6QKRcYN35aCImmzY5c+5FTIukR1cRGlIplMlYeEY3YdMuEuhFqRwcAs3gv3E6Bn3wvuYUNi1BdRj3I9+5ci3Qp94uBdHoXHNdwBH2h08beQnoia8G7QhnnPdmKn3uMfn7kcZ7PKO//ewhfD6QuRN+p6+xVeISy+IIzz8IabiXb6BHQo9CpomhZ9Mn5E7U6dPt1//yIft8iuWe3VGH/FeAF+0LXm/N4BCh7DhN6qGrGHMnFni/Zmnn7Z//ad/sWNMVZWvRw4fYb/3P37fFi2/zPM4hRC9LC58cIz41CE3fB0J63lLWhKREp7SnHN2m/NWQEklQEKRADHhHbr2DCXjmUSnIauEUgzb1K2oJxMZFcdP+IbS7PS+a9dOO3jgsB0+cMTXpaqsqnTJQEFAhBANnmH5UVjIT7rhi1jzCfdKO8Cq28cN+cTJE/2ou0H9D37HnZjxufb3sKT74Xku8ZJn4Uz/9N/90VLohNuJpWg5FxA2OQXNVgXiSa40u+Xu6c+9lPg9fEOxowznhacect+JJuPfVkYkiK39k0vseI9rH90UrIbgAD12nwZrLfcFf0fvk1ZsT8leyzQSLlpyid3+5jfb7Ivmel0Xg6bDu2EV0N4DJK1rDh5+xb38RzwwBe8f/u7vbfXLL3s1AGK/496320c++luWLZIgkV3ikfSIhXJzXCamo3jjpNVbJCKE2bRpkz3yyCOuds2aNctuv+02G6/EgLwMdXQveQD1kgIIqAtwjarsQxTloGcW7OjPM5MCTiAp3ZBWEJoEr62ut5NHT9khVfppFNm5c6cbupjiVhP4C/e8y0dO+aAxd1tG4Bz/k4Fzyed+0HcaFctB8oXMCoh0pFi0h5TDOc4jod3zOcBdt8OFux3B91puBXuJ3VxrzeBmSOzwnJfDXd6LaD7jRA9dc+BU/mu2Kwf8yCn3uZa9PEk8ncmE5/x45vDX9MTDGbQMCNuYuOt3eZ74xT/jZwHNz3VgYfEhw4bZ0uWX221vvt3mL1xow0aOsHrV87yuK60ACc7OAiydm+tOj4NCT+Eg7yI9WTT9xMkKe/KJJ+2Lf/M3nldJpdkzZtpnP/NZm7dwgdU0SWMoKnQB5JoWIVI4idOIzoSxQ6RVlvQIB+jpLkUUmbQuPv7YY/aNf/1Xb1iqq631Bpuxo0fbJz5xny1RovhACfyod1GHQGsPNnuAB6clti649hshwclMqJ6Nqgd7xvLrFtWQjY7ZQpNtGCAyrZ1soV+bNKJgn4gDSKiw8j3uuuP+MSdnHWvzhoar+J2AQCwQn/FtnSb+TsivHwkbCY2f+Q7XsRAI9oXotAOqBPhzd0t39S8MBtR184sBqMct91qet/g5gG9zKxQw4XmwEsInivC223M/6lmo2gR3UOUd8R0Vtk0MT3VH5WaMD5c+KiilbREHkJE4pxBnW8obbrjBrrzqSh/5RhsBDTK0quJsCD1FRyg8OOtN8EJbP+qsjDmgzWPTpo32l3/xl7Zt+7Ywmksc+PgnP3Fa49O50Jx8HcC5SaunRB/HFvGuRJUqyuqLf/1Xf2V7d+/xfleeMa+W+tO8+fPs05/9jI2bNNF3FWhSetP4EHMU/zvj0dPgfkreP8MRMplILENDy9Gjx+y4iHxQqvWB/Qds7969duzYcanzlaHTP1GtmahMfZXM6o1mWblD/7F+3qAWM7oysGd2nQfVMtxjYXV8xTPiyTM+mZcCRm4238cdt+qxKkASP/F3IkI6J9/SOSRoooIXbrsTiSV/L/iI5+EeaHav5ZbbI9NFNNvRgd0gkBNeyPBdyKr7aEN4MhaOfNdbflk0HNWcd/mn95CSeRhKMRnqpyPHjLaZM2b4ZmqLL1lskyay6fdwvZfvBS0aSyxIezuIL6QpA0Uowqorq3wP2ieefMLzEPn81jfdbr/xW79pw0ePcl6UiBNdiY6RVjmGDBhUTeRunreUQdgnHntcV3neXTB82PAw4kkvsTj5Pe98h8zbbfioUVbfELpi4sfIKpg3DPzFzx30C3eQhh+GTJLZm7tm0Ax4LjJCUPx+/MRxO3HihKvYrLJx8EDYAJndzGl1rawQqWvqmqUzGZZmeiQDCcc1RwjtRCCTQ1Idua8/2XHPNSPcF8HwNPZavB2gk0DScBc3nGBY0EWsP4bnLceI6H4EfoyI9/37CRlzwX20F4hE4YL/cJ30pgDkOa3egFFNXgC7lA3foFChHWPIiGE+OGLy1Ck2XSSdPnOGTWLTb92jhZ3vRvLj/7g6Z2jg6/3waFPEOAeqqu2ZZ562f/r6P9mRw4c8vS9dusQ+8zu/bVNnzQx9uApr4enJdN7omHqcF+p9eJZ+R7pwGEf6qU9+yvdbQWXmmS85k9QhIQt7h/7pX3zBJk2daoUlRV7yxoxG4D0C3gCCE9EduaIMpT+/DymRFLEbhczhEwaktkT7FECo9kzSJ4MiWcmi+A1Cn1IB1Fjf5C3YkBhpffToET8y6gc7jK2lJRtJjbRQBLnUwQ0yOGFDWpEhiTPP+O6DcB97LqkJhgchPuWcMjyED3sxzqK6DXLtx+enQY+bGzwSt+KBd+M7ue7TIozPiTPfLEp+xv+QlXdiIUArKHW5IYPLbaQk5oSJE2zipElO1ImTJ9mw4cO9+6ugmB3y0C7yQwOTCMpyRHwN33MWPp14rC9AXvWhmMpTcOAv//wvvE2Hwpy+/t/+3O/Y4iWXuraB9kEXX6MkcFeiA6RFmgTVhczJoH8k2bo1a+3zf/RHVnmqsrnyDTmopKMe019Ion30k/fZr7z3PVZdW+MqlVLf3eJ/S7brJOTj5ox4GkL9MWREPhWuIQF1a38l+ag/kyFDQXT8DoGDaktJKq1AZCaj4h52ICgZmpby45LSjBKi4Qtyn9A5KncN/Z6QOukDhdjEW3SHnxcSIbeGe3oW1NGc+8kz/Wu+F1qz/bQFeuQk5MT/gt0InvkrftSZ/iCi35cJ4Q3nSArSCJJSV2PSdhxYwjYvZErGAyM1MRAWM3T4MLdDm4W3Yci/DJTwAlHnXsfFCzL54j2FKd9LvKxzPNhHQKEjU6s0/n9f/7o9+OCDHp/FxSX23ve+1+5++z1eRShRfNWhGisOe4S06D54jNEzpSWlPuCB1rK//qv/0zwI3Os9CgypkKdEQtJWyf6973qnfewT93mC+goXLa66eUPwz7Tt7ZgBeYxEjeAsNMBEUre8H8jKfb1GBvNwkMWDD92uTnG3mUB6B8nhGVNkwyZkrGNwg+KEgo1EQ72uq6u16hqRWeoUhI6DGdgdn4KAujWjkiLBYz2bndSpEznpXfLhbwqSoK57nVn+iWGG1C19wqRZaF9gsAiqKwZCxi45pMPgwXEgiIipcyQoI5F4xg53YRRYqa80goRtiQOPLFdr8St+8X5tCgTikjRIoKgMcUzcK44oLLFPAUgce996Eq+9HQgoqjXM4mHfqmPHj3mc3XzLLfapT33SR8zR90yGQFsBrlF1ITpUpyUPQ1oyI/2w6PK0GtPEjYSiPocEZiYHDVEkJAnBMK8bb7vFPv3bn7Whyea5MXEIxnkFJdfXbTmk51jx+NI/xoc22+PUz/nX4pDb9zNlJb8drpwYfhmuW4PnZMjkIhwFCha/1D8yKWSLpIv2nHw5Brei4drrfsl7THjRGf+So/93eBGDF/TPScxP5InaRBxOGeus4Vk4j9oIjSi6SOxxD1dwMpzrH59q9rs/lL9A9AdHSOr2/TrXjzJI2hxnwjn/oq3eAfzGzvUUoPiP9GC020lpWOtfXWtf/OIXvV2EQUFXX3uNfezjH/fx7EmENYea92JcdBU6TloaeLIirUpc6nTPPfOc/eVf/LlPBsACHkPPZ7RHo0iLP+tkf+kVy+33/uD3bZTUKSdt4qyHLZx2O/gmGensAW2B+4sXOgGydyB6xxAzs8eDJyrESPwYSZEDbHinfRcg1pn5DJmKE5wOcdTGR+Qxvt8mWgW69dt+nbyM1Xbd6W2QX5GULL6AKozQ8rHYx07YP/7Dl2z1q6u975VGtj/8/B/5ZAAKu+bw5oS1k1npnAgtFWeDPhg8g7QJJQ5q4ciRI3Q/1HXJdIx99UyXZDhXk3TjVOUpV+9wJz7rERCJHTQh5uNJZ0xnoAghwmT8beKHo37UA1sbNIWuMtQ7GbwQB7ggK0PGkg/aiBD3YRv33bQCzuQaF96yhvFP9BHEejfTSsn/QUtqsu9+9zs+O43qzeRJk+2zn/2MTwWlHutxiEnCGk1X49ykFaJO7nUVeZxA0CCB+oD6FjIe0pbAhRZUtyfiVlVWeT0u1od6ArkR2G2mVUKd0+gfx2ZAHo83nfvD043HXReZmLli32psNOIbqPmtjVsnfK0MmbMZrZ7lmmbSyvQZyK+x1ZzBK7TnfOtb37Knn3ra42T6tOn2a7/+6zZlKvvnDrJ6+miTV5vRTeHtEGkV3e4B75NUriIgw4YN837ZeO0/MoHskciQGZWCBhYGM4SRRzzpGbTOSOc0vNNJ0ynoG7kgHp2x7ZhYEHaNCc7G72K8fVeB8LRsZdqDP8Gd8KqD42mGZ9Houq+AYKE9kufRFB944AH78Y9+7CP/hgwebL//P37fllx6qe9RRes4Da9RWzotoNzwm12HDpFWyerfdTWZRNaPLgAWXkaCRvDMGz1EVlo7afyorav1QQsukXsK8nxzJuqg8QB3IyCDd5Xp6BKN4zmMq2xdYXBLJsJTNLK4DbTYPBPN8RWBM8R3YshgzXba/0QvBAHI85b+J5543L797W8TS97Y9MlPftLmzJ7jUzJphYfUgRd6SwGNwTwjbroIHSMtLZdKgeYfPpEOP23WTMuj4Qk7eI9w6iEjqPIlWckH2fqs7d+zL/TPyRTwTAZ7IYQ4hulGBK91ynTWS+G9zvwapQ5TlUDGKWKIrAtk4OtpRn7H6Ol5GRCT1MebJ8doPKl7GSi8WBAgCqQQkFANxKx8YaX98Ic/9NU7xowZa+9+33ttyVXLLb9UEpZwNeaMFNS7UaPAmRjuzualc6GDpA0J7RkM8uotEmD6rBlWotIGD4aGpwI9CC1oNFL5PM9sox3Yt9+adHTi6kV+ISSJ4YXuRqtPntN0FlG0dNR4oHNMW3YutJE/2vy1FT9tGOzlmlzCYtydXgYWFhgyYoQPhIHAzNyhr5v+dRZl+OrXvmo7d+6ykbJz38c/btffdIOVDxvi0wopbgkT3BA5mqPCoZMYD12NDpE2EJYz/+fnnM2ePVuBGenkRCWmtGn2tY7e4qYfA/VZNSG8nSJF7wGzi6pOnPDBJQiaQUOGeNfOa5s321/91V/5MNZp06baRz/2Ubvq6qtdHe5pdIi0AYFyzXUhMRf9nkXS6EJAetL6iTVXM4IlVx0Y6nf8+LEw0ihFil4EsipT6TjJSsrWVFX5plnf/OZ/+HrNLJj/qx/6Vbv88uXY9nze0+gwaRM+BrHr16Exatr0aUkwVDOTft8cMFkOnfhmjENmB7EebYxKkaINUJfNZjPevUP+fP31Hfb1r3/dNqzfYDNmzLD77rvPLl9+ubFJOnmaVuKeRuckLURMziEwAWaeJOSl1ThhqrdQQmqGx9GBj93de3b7rJoUKXoTkK5og1XVVbZ582v2xS/+reqwr7sq/LnPfc4WLFjg+Ry1uLauLhFMPYtOkDbSFeR5QMCEiRN9Khb9WS2qs0xyyjkl2N49TJTP6DqpsCd2/RjtpkjRTSC/kg+9GqdqGibk4SafmMEqoP/xH//hOyS8+c1vtve//302efIU1xIZY4B9VtfsDZm1w6R1buFf9GSBPlgigFa1iarbQj7UYY8UJ2aQtkhd+rF2797jfbZe7+Wp7IdW6ZSxKbofDIpABQ7qLXmwySe7cEor8T/90z/Zztd32q+861fsAx/4gE2dMtU1xTCSj2zf2EzynkYnJG0bUGBYz/XiefM8QBAwHCE4JVqYuULksMwLi10DV65FWEjrPydyihTdh/JBgyQ8wpxoyAuour2y6hX7whe+4I2lH/7Ih+2OO+7wIbq9oe7aHt4wab2sEtnY1X3+/Pl+Hksk56TbcJnq5GblBzZjomtIllzi5s53TZGiO+Fk9bEEYTAFddmnn37a/vM/v23Tp0+zj/7WR+3KK6+y0aNH+7PeLEjeMGnFQycn6gPLprKqAeFEskJYXxwNezBZqKmptd2q13LtESJDPRg3op0UKboL5DEkLIQktz377HP2zW9+06ZMmWwf+tCHbPny5b4lDKBr0oVLL8V5qcfUV9H76audM3eO13OhcyQmqjJHGgA4sm8PM35YL4lnsZndpXGKFN0I8p+PJ1DefPgXD9s///M/2/XXX28f+chv2kVzL/KtX+j6gdSoxr7jRS/FGyJtoFjSCizSlpQW28UL5llBWZE1FPh8EX/mYzEZUJFt9A24WGr1VMVJnekp0lXvsjFWeCNFivNH7JIRR5NcJQGi/xCWVTYfePBBW7HiBXv/+99v733v+3xZHRZ3oNsnTh914+/2TnSatE5UJywNSI0MexfxGm3x0kts6NgRVpuX0RO24ch30hbpyBp/xfrU0QOHbM/OXcYKdawyn2Esc0F+StoUXYZ8aW/MEyZ/QeBMQ8bbT1ij62f3/9xefOlF3+Trzrvu9DWZIaprfCwIkBAe7a83s/a81GPWgWI9KITmzFkzbc7s2aFxSdfQsDUVGdO5atUrOQ904iXbeXkjRYpmsKIlKi69GmGQj/mqmUxgp13lvo/fZ/PmzfNVMwESuK/hvNkC4eiHZZXGRYsX+Qp+EDHykmM8x966tet8qQ5XQPxhro0UKc4PSEukZ001G8KFXovHHvulD/p/5zvf4YOBaIehC4h8F/pe+xbOy8fM7mERcOoDNC4x64dWZOoEbakX3Gd3MTbKIkZ9NpjqvN6anCJFF4DhtHTvIEy2bdtmTz31tE9Yv/XW22zY0GEuOCA1R/JvX8R5kRayUV+IO2GPGT3G5s6d27y+cVOOmhzP2Zpy82ubfblViOstzilnU3QRkLRIz40bN9iGDRvslltusXnz5/sqobQKQ1a6GsN+vWE9776G8yItk4VZlNv3R1UElA8qt8WLFzdvCuwLhzlZAyu9YaA+Y1u2bpGKXKuP57lpQyinSHFWuHbWXNiTg4JUYAAFA/6pv95xx5t9LTMkK/mR8cM0OjHRndfJs97o1MdwXqRlAIUvtaGSjTWhysrK7dIlLHZVEnZPU90BdSX2jwHsbli33qoqK/2a9+KzFCk6irjAAmqwL7bOvaZGEXan58NFixZZSQkT28NzFmiIUji83zdVY3B+klbEpC5LqUdLMioHcxCnTJ3qm0kze4K+WPbspHSjKCSy9u/dZ4cOHPQd9thugha/FCk6A99k3AlIngoDeDBjx471scNsZxLhvRP9SDCcF2mRkMQFkRUbk1gD9sorr3SicgdD5PIc+0jWihMnbPu2bS6lU8KmeCMgP8U8Rx6kbooazLIxcUkYBATPonTtL3jjoVF8MWuCUoy440jEUWddtmxZMl0vTDIm8ljYnHdYMIvrTa+95uvKNkgaQ94UKToD8lwzcfWHfkwepGGUe1H9DfkTC5j+gfMqgmKk+dxaRZpDJ+MnjLdll1/u5wA7LZGn21KZt23Z4vMY/Tq+myJFB0E9VTnH81TY3AwT2keQrLGdhGPYQtQv+wXeOGkVJ7TUESGQkHpFWD82z4qlolx+1RW+RycqC80EbM7F4tylRQxozLOD+w/Y+jVraT0Ik5FTpOgEnJwyHP2nvOVk5aEY6kRF2uawNdD8dNMXcX6SVj8aoyjlIKurwEJjYZ6NnTTR5i2c76QtKSzyLezzMw1WKJIWKS7zRNTnnn7G6qtrrNDrHCEKY78ZhYBP3UuRog24lhdVXs86QesLp+SdvGQMQLgXc1hbpq+hW1gBiYePGG5XX32ND7xgo2XfgJnJAQ2UgEjXrK8bxap3cRoUJSV1YApH+tPSSfIpUpyJbhJleT4W+bLLLrNRo0clMy/CEy8dYaXsVFQwgWCVVVdXiawZl66oOaE+EpryU6RIcTq6hbRR5Zg4eZItXbbMpz2xsxhT8JC8jJTygRc6rl692g4ePORqtM8Y8jdD6x99cSlSpDgd3cYK1FvWQ77m2mtt3IQJTljIiuGcpnlI+/rrr9umTZu8PoJ6zGANb7qXGp3WaVOkOBPdI2lFRh/jmcnY7LlzfOHnuAlTfWO2mbCoyZWnTtm6tWt9NTz2UuG2b1Yt8iKhU6RIcTq6hbS02mUZNFFY4Jvu3nzbLTZsxAgrKi2x2vp6H5cMcQGtfGtF2r179/lu27Qes60gI6v6ZtteihTdi24hLaOiXNVtaPA67KTJk235lVc4UYcOG+pjkr0OK2kKWFr1kUceCSOq9Ky8vMwJnCJFijPRLaSlz9b7bpOW4MLiIrvtTbfbiFG0JIfZP6zhQ0MTXUE1NTX2wgsrXNoigNmQOvb9pkiR4nR0k3pcYE00JNH6K9Ky4fS8hQtsydLL7FRlpUhc7KSkT5Y6LBL28OEj9uADD4jA1VZfV+v34rDHFClStKBbSOvDx8RGBlHwYz0e5jZef8P1NnHSJCdsnK4X+2ZZ2fH5FStsx47X3Q0nbdpPmyLFGege9ZiRTyImlKNeWyfJiaq7cNEiu/mWm0O/re6XMlle9338clOe7duzx15cudK31KdumyJFijPRIdJCvrYMaq9PhdJ5Ta2IiXTUeZ7qrVW1VXaq+pQkaoHXXRsasyJpsb3tbXfZnNmzpEJDVrp09EZ91obmSWU+VWuvPPuC7dyy3QoaWIqG6X40WPGxQstK8rIfgSrFupEixcBEh3N/JGquYUwxrcOhVXiYJGqd7tXb6ztf9yVmSkpLXKLCM1qT6f4ZMniw3Xb7bTZ8+DBfaAupy4SCuqoaKy8utf2799rDDzzkKzUy+4euI+q2Xv9VoUBfbmx1TpFiIOINiyzadUtLy5yUtBBXVVU6AVm2skgkZEEtVhGA3LQiY4+d4Fn87cYbb7QZs2aGQRa4xBHJK7vVNdX21JNP2tp163zqHyOjGMfss4nkBls4+MdTpBigeMOkhWCsL4sEjTc2bXrN1+cZO3aME7lOKrMqt/4Q4tKqzIye8RMm2FvuvNNKy8osX9K2XmQvKCrydaWQ3OxE8KMf/MDn3DJQI6PviOH+GfhKN1GKFAMV51U5RG1Fgp46ddJeXbPGtwpkBz3d9sYl1pqFhL6oGwJVJo9GKpGYiQS33Harn3Ovjk2QZLe+PqjDa9estRdWrLDiwmKfxkehAOkZHtkXt3JIkaKrcF6kpY8VwjJTZ/DgQTZz5kwnHEMTfWCFfmEycoEPpsiK4CxkTr13iOq073jXr/jYZIlrJy6SNi4ofeL4cXvyiSds5+s7XNoiYSEvI6nSrqAUAxkdIm0YJ9zUPODBjSQpfax79uyx8vJBdtFFF0vqBgnIc8B73mgkxqFGU29FSlI/pX47fuIEu+cdb7cx48ciRl3qIrndrn5bN2+xH33/B94oxfdia7WXFilSDFB0iLTUT2kQYuEsCOWk1L3Dhw/7YIj58+d76y7sdMLlkCrQXdA9BlHUJ2pwHFxx5VVX2eVXXOET5bFTVFLsBKURqr62zh579DFbueIF30YEV6uqq73wSJFioKJjpJVBbaW7BXKyKDndO4888gvfu2fQoHJfHLqFTE7TZrQQ13xNWs5RhbMi57ARw+2ue+62ORfPtfziIledvUzQP7p7akXSf/2Xf7FdO3cmajetzKe7nyLFQEKHSAtRka4ucUU29klhgP/EiZNsypQpTtZaBldIytItA6cgejQRSFa2CWEVC1m2Icz40b1xE8bbr3/4w953SzdRmIsbVrGAuLQi//hHP/Y5t8EPaT9tioGLc5IWmYY6G7cFZJ+Uo0eP2po1a+36668P0hWSimHUR10G5pA2FwxZRJJCWK+fyiKmpKzUFi5eZG9/xzu8GwhJHpaeCeo2ZH3pxRft+eef9zptStoUAxnnJC3EgzjeXyqph6Tdvn27TfAdBPKsvLzc7zMhwO3D3tZsTVBQAPnDCCkapDiPkweo6971trfZdddd524MKh/kRyQ8kvdERYX9+7//u21+7bXmhq4UKQYiOlynhUB0uZw4fsJ2vv66zZ83z+udYVuPoBaHNt8zOdt8r1EERDLrmC/eYb9I1wyeYHhjQXGh3XXv2+zS5UutzqSSF+VZtonGL72tb1ccOGz/9pWv2s7XtsoNCXQZen8a5U4j/ksM46zoFGYSQn5jMEEFSJGi76NjpCXDy0DJA/v3e0vu+HHjXQIDr++Gs+TYAq6j4bn3ucq+NyglRC+WJGUZ1VKpyRMmT7L3fegDNnnGVKvNhqVpIG0jUl715r3bdti3/+3f7diRY3pTpM6E0VS1DMrQdTTuW0jrxj+eIkW/QIdIS18rxKT+um7dOq/XMlyR1uSuAIMlfKSTJO7gQYNciv/ar/2azZkzx9VnJDEqdFFJidenWeD8B9/7vlWfqnTCN2SyUqfL3Z1YaHg5o4u4oFyKFP0FHZO0SEWkqTI/y51CWNRcrrsEcgfV24mrI41Nl166xO69914bO26sN07RgOVrJeu7lZWV9osHH7SHH3zIaiqrTD6xbG29VO1E8mPkZvMRf3aVX1Ok6GF0kLTBVFdXSz0+YKNHj+7S6XFRiuvgBQSzhBjHfPMtt9jb7r7bB1wMGTrE6qQiM8EA6VslKfutf/93e+yRX1qmptbKJIUzdZmgyidEjVI2lbQp+hM6ph5T98zLtyOHj/j44SFDBnedlBVQayEq32GSAdPvCkVUupruvvcee/d73uNjliko6Ofleaau3ld9/KaI+8Sjj9nxI0etRCo0pHXi4m4OaZNbKVL0eZybtMrtkIof/aWosHTvIBG7CqxsweCMEhEVQuJ2VoREwpaUltrb3/kOu0sSd4xUZYhIHy+SuUqqMdL/u9/5jr384kt28kSFBwifMRQSoGp3Vd07RYregI6pxwz0V12zsqrSBz5Arq4UXajH7CrAN2gR9jq0fqjBTlJ985633yvivs2y9PMkBQb+qBFp6YL6xy9/2VY8+5yPoGIv3BIks47Fkr5s7pUiRX9Bx0irHwSqVd0RQvnqiV3K2qDSRrU2AnWZxd8YwMGKju96z7vtYx//mA0fNdLySxiQwbDIsAVJbXWNffUrX7EHf3a/L99aX1Pn3Uu4wdTArtMLUqToWXSMtEg+SUN+rDwRVkrsOhq05xL12Nq6OldxWW+KLp/b3vwm+9D/96s2dsJ4yy8u9D5a9rE9deqU13H/+7vftR997/tWdfKUB65J/vURGClS9BOcm7QJoyAuEo/tOlgPiuvuBDRDXY5DHJkRVFRc5BL3lttvs4989Lds4uTJfp9uICd4TY1PLvjed75r//kf37STx05YobQCGqhSpOgv6JCkhUA0/AwfPlyErbKKioowtLCblc6w309D80R69gCiEYpVLpYsW2p/9oX/bQsXLfQ5tviEUVao2Ewb/PlPf2Zf/Ou/sd07d1nF8RPenZQiRX9Awed/58N/kpyfBQysCC28jzzyqM2fP89mzZoVVGaRAaEbJW8YhNF5Mp/xhm4w8Z46a7HUYurUwMcu477qq4OHDLZFIi0LzB0/cdz9J+b6MEv8cfjQQdu1Y4eNGzvO+3npVgqqvgKueq7vNK9r3w9XYeSShdbZQ9ctnQOdD2WK3gYKeYa55qYljZ8R3taiI9Itnuc+7wl0kLTyLI1PytVPPvmkS9wFCxZ43y3SDThZk6D7sTMBw25rwyG6jQrs5NJ1UigUMClfBCtWXfeyyy7zSfrbdmz3Fm7GREPuhrp6V5dfXb1KdeIyGz9+gg0dMtTJin/Z6Mvn+ModrxtTZ08KCihL4kQT/dQa7dxO0UdQqIQuyB0nFNM8nDaTFWIXJDd7erBOJ0ib5/XGlStfsOrqGlsqosSWWyQi3SuuuorIFyInE7HuJxGvTIScNnWqLVyw0PaLpBXHj1tcrwqwzcjqNWt8PaspqgcPHzFcz0mpJiuTtGbsMjv3uXuQ1wsJUijAg9Ny2Qzu93D6pThPxGSOBbMfE/hpch1vO6Fz7PQEOkRal3ACfamsC7Vhw3qbe9FcGzFihEtbyMvoJXI2G2l1WtJ2EsQzLcp8ItZjWfFi7NixtnDhAu+aYgphbV2tJG6hb1nCSK5DBw/aqldecUk8etQo706CsLxfXFwSpHPsK5bbBJtnfp5jIto7T9F3ENONPBUJyXluYkc7nPQZ0pLJUSeRQJDgBUnbrDL30qXLfLAFocEOE+Q9w3tuD+92B3AflRZVmbopfgv9sflS3UfYpZdc6gSmwezAgf1JgSKiSy0+fuy4L/l69MgRGz5suE2cMMHdQFOgf7dQbsReXf63NmfDuZ6n6J1wEspEwrYmZSKzWu63en6h0UH1GCKGwQ5lZWW2+bXNnvGvvvoqGzRokBMWEnPsbsI69A0kPP7xUU/FRd66zTX7BeEFVtZYIhUe/+7du9cbq6L6iyq8f99+e+GFlU7eUSNH2gjV0xlN5RMXRO4YjGgcyb22cJq9FH0OuUTNTfsIfx5v5D7oAXSMtJJk+JRunuKiYjty9Kg99dTTNm3aNCcHqimkLZGKCYmwS8C7DYnj+IeCgi4hl/IUHlJ3qWfjp0GDB9u8+fPtkksukdQ9aRUnT3qXFStHsu4y25Zs3LjRXtu0CR/bmDFjpQ6Hhi455UcFng/6tzgC/69nLvETv/hT16sShNspehWUKEojBgmR3p5cnnCcJEjyuqerCm/y12nQ7VzrPYEON0R5QBUQBt9zXL9+vc+tXbRokTL7GCcLUkoP3XZ3AtdRiYnf+CUnEEfIpZvUefELgzNGy39XXnmlrx5J/faQ6uVIXiYn4GekLVuQrF2zxlVltjYpE+lxMHQ1sdKG1GavCoRvoIoD4iUkdC5IdD7vPgq3UvQoSAsKdkbPkeZe2LNOmaevQDLSAKkjE1ioBpLH6J2QJbdCTwOz0M5M7wuLDpE2BFSBUKBYkI2peQxgoPsHdXPhwkWSbCU+vNFLJsJ0gfNq/Fybn1WC4X92ob9s6VKbMXOmd+8wQ4i+XfyNlGZy/cYNG+2lF1/yRqxyqdaozbgaEj2EP/eaoNL9FBOSoiMUIGHSQ4reAQiIBkbvBtUowDkFMdpjWO8s66uk7Nm529ao+rdx/QbbvXOn2x+pKhSCiQI7FMY9h7y6fSvOmbOQrpCUWTUhwHm2b98++x+///se6E996lO2YP4CVzspjSjJujNcrT0cr8/2SSYHIUWRsJSWRyRdX37pJXvy8Sdsx/btdlLqM+973VfHrNTnOXPn2J1vudOuvf46Gzx0iBOb/lz6h2kIYxAGrdKo2oVym0asSFj/Jj7Dc90YFyk6Brr46P3wwjaRnIy2o9AmvU6eOGHr167zKZ5Ul5iG6quPKgFnz55j7/3A++zKq6829mRmwf2eRIckLQGlKyc2NCFU2HCLTPnyyy/b7t277Zprr3WpS2nW3YAD0ZwNNB40G12TAPiP87LycpszZ7ZdddXVPrqLhEDSMkGB4ZJlKqDoNlohtfnxxx+zvSqkCouLfGRVsVRnJHdGhEULobAq9NbsHB/lkjXndoqeASpv7AHJTQ9WYvnlI4/aN/75X+3Rh39hmzduslMnKqyhPmN1NbU+DoDqE/niWuVxpnr2dHp2iLS0prp6nARavBXybPLkSbZr1y57SRILQs+aNdMzf3jeg9D3c/nDDbp9kJSQjMKGc/xMlxV12Pnz5tuSS5coTJO9NdrHK6tEpt+2urbG9uzd63XeVatW+yANOMkG2UxioCCjv1hFWnBf8eScJSJ6PDJSALr7fOCPUgZt8dixY/bjH//Yvvvt79iK556zI4cP+zzsRqnApDtk9TEHSj696v36t9x6SxhSq/s9iQ6RFnXQt5lUBgVMzyPwEJQBFitXrvRW2LFjxtq06dP1LLa2BoEDuIrnrXG+2Zr3cw1wvnB0E+qfngAUQDqBsKjC3iihxETyjhs31i66+GK7+pqrfUwzUrni1ElvrECVqq6pscNHj9irr75qzz73rG3dttVby8vLy7xvl3MSHtJCWNTxJBpOC3y85SetIyXXfrPFgYu2BrdE0xZCYZ1jI3mfdK6rrXP3Nqxbb1/6v1/yhQErjhyzTE2dT+FkSV/ISlWHvEEjJtUgRgLOWzBf+eIazwcU+D2JDtVpT0NOZqJuQGvsz372U/ve975vZWWldt999/mG0Ug2IgqywxZI4pk5vHoG2rvflYgBbfdbsoCMRLPAv5TIJ1TXoY7zyqpVXjDt37/fxzfzjP2GeIOd7efPvcjmXTzPx2SjgTDIg+qCO6twh7aAMIILf2AalYN4ho8oUCL8lmzgBx/znUjvKCkivO6sv+BG/wMEO2Mwf2IchD05jWgkz6mQ9THxPOQ8cePo4SP24P0P2EMPPuhj0mnbyEMAyQ5xiA7m4F2Vtg06MO1z1JjR9olPfdKH7paUlakEwLWeQ+dJm4MoragLfulLX/L6LYPyP/qxj0piXSRJXNKc+QEkbiuDEQU9Gw1ngsa36G+OVQrj0WNH7ciRo76D35atW2ynjocPHbZTekYjVHFhkTSP4ZLY432kFa3U06dN8y4nJlnQd0x8YJAIzAVWhLgm4/d0ToFxemRwAbk5DxI8kpU8RiHTXxFJmwu/zImf+DgeSTHffkbCgvon2g/rY9Ma/Nijv7SXX3zRaqqqXfNC72USgGJepyEmXVIrjilQ6RVg54orr7rS7vvkJ22SCmNfypf2ix7EeZGWUMa+y61bt9nXvvY13ygLFfNj931ckudib4FjVBKTCRhxRKZrC23f7TnQ2hiHaGYy9X6PwSNV1VUuQSHyIRH29ddft21SkzdK5dq9a7dLZp5BQKoTIyRxkbxzJYnZKX/SpEner10+eJCvfZVV5orVDVfVndQF/u1cIvPzuFOc+xVHl8CW+LMfQmHLpYcu24TfTzJQfn5ca0xpqHhlj+NfPPSQL25/+OBBJyp9sGxjQ1WG6ksyzML/N/kNaYaKU18BVHf/5x//T1u2fLmPtvOBPO365MLgvEjrGUqGzEWGevXVNfblL3/Zhw1OnzHdPvbRj9r06TO8pTk0BJyuBvZmEC7vx0tKVUpmMgGFFCSixGWARRxdRR8f3Qc0UrHQHA1Xe3bvscNHDlvFiQonM328bCzGYu+jx46xyVOmKH6m+8yjUaNH2bBhw7yAK5TEpk3Av6nMRbxR7w5kDYTlnm+xIpM7o6nfITd3diDvNGVRjUO1bO3atfbf3/0v79pDatOWAVFJRx9N53SFgnrId8ickJa4VyTTW/BxVfduf9PtvmA+W7SiLrv9HsR5kZaM42qGAk/Gqa/P2JpXX7Wvff1rkkKHfFuP97znPT5qyscoJxmvLyCGLaqrocAJBtIEMiHlQqs6Nwkf2gSE5jnL35w8dcpOnjzppOXIJAZITL24tr7O7fE6jXqDBw92M3LkCK8TjxwxwruYhg4d6kv9YCdI4lDX5fshs7mX+yUIHga0Fczce6RDprre9krjYeDPUzLkQ6QtjtDQVCwpG7U+J62UFN8vGYisnsaK36EqQO++52678213edXG++WxQ/o3+6hncF6kjStLEFBUxrq6es/ETz31pP3zP/2z7dixw2bNnmXvfve77bbbbvNIpUX1DPTCTBd46P88oSAI4WzWGGSHpn9vjVYmoFEjrpgBuaKUjCQDgfCS0klfMKay8pSv33xKRzr0XSqL2PUiNJt3832IjBSmbuxHSWVa7csltYl3908vjMPzBRkzd8K5n+bkVq6RoMQ1KjGjmZ594ml7+P4HJTzWeNwwdNHfUTwWUNDplHThni+MLwU4K2lL/FEQohbT9nDb7bfZe9/3fsX5aK/n4gTp6O8ijXsQ51enzUWOKwQMlQRVmfm3SNl3vOMddscddygDDlFkxqlyRJYiUpFA6cV7kJqSzgmT62hPIH6+M2mU6+XW7yXPCJuvfaXwOv0T0gXyBVWYggAwwozGPgwL6tFtgTpOvZeho2QwpDJqPA0woXVaP30jxGHfBb5HBlI4en1fcRX6TlUIKu+QV5CYFJZsyva9//5ve23dJqtXYQeJZbklzrGPaqsj9VmqIMS5dCJrlHM8QyWmevLu977H3vKWt/hiCXkImVbpCIl7El1H2hygUlZXVfmE8+9897sucYmMG264we666y5vjKGUox/Mx3Mqw5FZiRyITIYktgOpeziGugmBT/xrkZJOYAGy+cSHBLkEbCaivxrejXEW1GY9Uvz7IgEtTvRJEEQagiiI+HmBpHBRX2UARE11jb2+fbs9/dTTvqIK3TiW1VtUaRIHmqMgxhPuIDF1jlvZAkngkjC1c8bMGXbXW++y62643gYPGpwIkzPRL0lLpNHdw9Q3Vrn46le/quNGr5dNnjLZfvM3f9MWzJ/vmY7VIxjDSwTFVlRUbBKpp0eedDcIo0e+Mg8/v6e48FJfmTLMQOG+bCqjuJqty5hg3AOtG/nInGRIJLZe7bMgnDQG+aAIzhUvTkj9HZUG95Mf/9ge/cUjduzoManJScEWstAZQE2mNZhn9AYQl0VFxZYtbLKq+lq76aab7L3vfa8PaXWpTly3g35J2qL8Qicsdbuammrv24S4a9as8Zk19GXec8+9duedb9H5SMuiKoqg2EflYYYNaG7k6QN4I76kPtYWqQhyCwlPJ2MkM/eCdIX6usCO3iO+fFqiLvo6aQETMqib+h7FUv/379lrjz36qP3spz+zGmlzkJiWe1TkkF/aCbAijNZ7yIg94hIhMXnWNHv3B99nV111lRcKrGZCtcUngeh7/qr/b0G/JC27rytWvG7qGU2GZV8Y6/nYY497Syr1XKTtPffcY3MuvsgnrDPIwOtles/7IClV+0imCzTpODxYSYEUqgBOPbmhH5ITMiZsDRwMsjhXokJQnvmQUR393cRNEN/vq/DwKS5YaeTggQO26uVX7Plnn7VtW7ZavYRCY1b1VMJIHqNRVIVU2CHxzHBTBfMhiLJDm8qQIUPtqquvslvuuN2mzJoe1GG5RX03xHFID4eiNNfF/qseq6LPwApXdUVC6iGQ9YUXVtg3/vUbdvDQIUlW9qEdajffcrPd/qY32ezZs73BhcRqHpiN71pFUnse7sm4fCOR6P7NDV90hOvm+y0kJWPGe7lfjF1pga9kWT1P3ukxtHivBR3xk95zbUFEJM+g+j7xxBOqtz6l+usOb2SifzqQVWEmTmSXOKCwV22XtuDTiOVRmRSCDK9lJZO73naXLVt2uRWWq3pWGPpsiUC0FB8C6S+eHgjXjIT+SVohBtCRBJKGAxYYX79uvX3j3/7NXnnlZe/oLlK8Txk/0e54y1vstjfdbqPGjLE66h0MZFAEcsSwPYiPK1XENzQ1eETzI5FjAwN9cYDv58bthYjozkTkG/JO/EB8ufX1eeK0NOsA3HqOX+Ip5Ihjf1E1kV7UE/XPGkQe0ssLFkgRSaJTyEi1igbKnTtet8cfe8weeuABnyKHekyjpWshsuyNlbwPcRN3IBz5oris1O1lGqUO800V/gwZnTptqm/idsONN7pQIE/4BHgd9eeQS83nZ+CsDy8cuo20bYH6KhMM6J7Yo7rJgw8+YM9K3ak8dMwyldU+02bRJYvt+ptutIWLF9nwkSN9uQ+GlhHxkFUp7PUcjmQOEsfXh1IoyAihpVHnfh3gAewFkd3rkRNnHQGZPmaeGOcOjhBJID1io06D7mWVbg6lG+AdJCojlSpPVdr+ffu8u3DFiudthySr2KY0RnaeDt6hICC1vetM32G0Wl5BnqvTkLVE5C2QNjd23Fhbuvxyu+Gmm3zpXwQCm7lRV0ZS04jVl3BBSev1BKkxlJreuKCIf+655+yhn/zU1r6y2urrJF1FaEraS5ZcajdKbb78iuU2avRoRXTGS1J2EvCGFrlFwwJu+sRkAakNPAP5WYruBBknZp7cOPfCU4Z2iaC2BumaFVFJIYgchhLqmc4rT52yta+uscd++Zh3EzKXGdJ7wxJdgjk5NBYUEJY+WvIBblNfRWo2SdKiAlPIM6rp6muvsTff+RabM3eut0RT5WIooooCV8FdQwtO9xlcUNICuie84URg2COkq6o4aY89/Av74Y9+5JOTndw0SinymZ975513+hxXRgPR4keJiprs40GVWNSdm8G7yWku2rqX4nR0NiO4fSJWJzF+/TK5Zl4qiCoy94uKS/xZVgX2vr17fbjhE48/bnt37wnvojnJLgU6pCwrlPrKfRziqAvOad1lB8WwFWpjOJcaXShJO2jwIO/Cectb32qTJk+20vKyQFYKiSTvZFTge9eOCpVU0p4FzJxpGYDP8L8w8gnViATeuHGD/URSd9WqVT7dj4TF0Jd70dyL7JZbbrElksCUoLQ2A1RlSmQITkJAWtA6UDTVpDg7iCFI0VGEGFUhmUQtr7rxghNpGkYleS+C0phumVMVp2zv3j2+eB6LJzC5BPUXiUcjZG6RW6w0ZSUJ/5BuR//555R3vMok4vGMXgeGHF40d47dduuttnjxYp+VQ8FOlyJ+otcb8nrrsv68fUT3vVGrD+GCkpbWTyKZBgdU2zhu1yNSiUudl7G4rIj405/+1NasWm0VJ054f5nXVWWHSQhXXnmVXXXVNTZ7zmwrUqIod1hWz0hEHwKZJGzMgLyXkvbcCN0lnQERfDppcSBEOw1M0paUpmz4vWH9etuwdp2tVZpu2bLFC2XUY1RU8gMSljQGkAmy8zxujhXTFD/6eGRpa15I6zh23Hi74sor7PobbrDF8+dZeVm5txZTjSJvxeqUe0yn0JZr3A9+9399BhdWPeZLnjChe4JEoqvC00W3IS6JRwl9/Ogx2yTyPvrIIz5x2dUm3ackpptoyOAhNkukveaaa+1SSd+Ro0Z5AlIoeKI0JxrzJxlzmgyV0Z83/+vn35a73HTp4H4LdSS32E8RwhniO4CwiyzK4JzEuEn+hBA/3rXkcYqEUobnmnShMUdxCkEpIF2iiqjML6aO+urqV23//n1WX1NnDbV1PgvK3dd3yAge97qCrF4Pljux71k3w7eVhviPVuCC4kKvl06cMtmuu/46r7eOHjvWx2GXFhUFyYkRPE+FU/9cUga4mw6+H876DC54nbYtEJHNUhEjH3EkM5w8flx1nid81QHGljJDhlUk8vJYziZfqnOpzZw9y9fvWbR4kY1R4rHcKS2VNHaVJOsxK2sF9+WwZ5H4Pd2AuGEgesiwWPLrZkvhEE56PLrOG4GsCp2HK4SJe2gpDh64HU6JnyCtYjTEDE9jEgMccIN668mKCtVT99nrO3bYalVx1q1b55oS6y5BuqzSLl/WA2EDcIsrNC/vfhFZqc/yfZfU/i2Rlm4/pTfLvQwbMdyuEVlvuOlGmz5jhrSsMJrO1V1Ptxb4l5IbnLd8OSC43rfQq0lLKe4r46luc+TQYXv2mWfs0UcftV07dyszsE5x2H4zmw0NUSwoPffii+3SSy+1hQsX2pRpU73+S2JnGupyEowzMi0ZsmUEDLfJUOTXKIXCM7ftnor3+zIIAuFydTQJE3HNOUCCchrigvCGQgzy0n5AdQWS1kpyHj101Hea2LRxk23ZvNm2b9/urb84jeQj3hq80JTyg0tyA+C2nwXPOCn5lhcQeoa0perEuxB+2PBhdvHF8+waSdXlV1xho8eNtXrUYwE1N9RvY6MS5nS0fTcEOQl2n0GvIK1HaMwwiW+4JAEpfUmUqlOVstRoR6U2r1+3wVY8u8JefPElH9vs/XSyX1oaWgnZr5ZNtcaMHWNzZs+xixfMs1nzZvvQybhOU6hHS1oo4bnGkGnIsKhmfDug/5HW1VqFI4QlUU9lJMsUxYoXGb+neMAK4acRkZU5KipO2M6du5you3bskvZz0KdfVleFdKBq44Ut8UtBIHhjj+IXeDUFB4lLrvUBSEpDItI2+EjviIA0Ls2dO8cuUSG8bNkyX+WDSSdoBAyOwI+xYCG9vFeB7yaZKOaliHipTzcj97yvoNeQNhctESnyKCOQKKHxqsHrpwX5hVKbT/kqGQ8//Atv5KiprnY1mEzjpbuOvFNWVm6FJYU2YcZkH7ixdOlSmzp1qsgbEt2fy00+Ssb0DKbEbyFtAnkSf5Lf+gMCX8nyIUxOgHpJLhHNCSvj0hSiSsVlEbtVq1f7ypT7D+z3Dc0aMiJ3Y5DYEAzQB8979J1TeELSWtVjPV1UCOQR1UoXN3oPwqJ6syDA4KGDRbigPc2bN8+WXb7MrrzqKl+Kh6mdFAK8gwTG43T3ke4UuDQ+0Q3EkMRcrc0D2Arc78vJ2CtIe3YoeslhOriEFJkas1KfmkImYdjbLpX8z0l1XvXKKl8psba6RgkcCEgmbMxvsrpC1b9UCqNqsfA0K2qw0NrMmbNs4sQJvorkkCFhgr43uJDa/OnbZCqXHLrGDzjbl0E44qR5wkJhhcZRe7JKheEJO3DggC9Cv237Np8LTbcM26ZQKKKFIBWJgrymApE2kdoQSvcgFEev78pNGqdQqQFDDBup1PJRvqs0oiCGzCxTOkWFKQXrsssvtxmqqw4ZOjSowLJPenpDl97L1MsfOqGwZXodAaKKhAaRzVP+yBGx+KU1cbnn9/soejdpo88Uw0jPcKn/Kkr5cTeqc6y/dPToUW8EgbysUXz40CGXFNij9AeU1JCSejINVUiDocOG+npMLLg2edJkmyASj5w01ob5Wk3DffG2qELzfR/3KpDRncgigDzhz9yf3BT4VlvguT/jcRLGWEgAMrEjuY7Ive9ESb4DcM+f65ZrCXpWkl9iTQ3BTlCJG5149IcyRZIJHIcPH7F9+/Y6UQ+KnKdYw0qGLhka/WgUQtsh/tzfFFpyL3xDccIy7fqueyXxD4Ty8Ok6+DFcN4iw2QLGIRfKm2EZndlzVH25+CK7WJJ1/Pjx3pBYVl7mcUx8Q+wQrhiOEEYfZaWCIsab3xdyCdsegs2+iz4gaTsOMmZRWamdPHbcdu/e5eswP/vsc76xUll+qQ/gIO1Z6AvCQTCkAJkM4mdRqeUGY1aHTBxlw0eP9C1D2IN3ypQpIvNEJ/Fg1Y1R18jAvAcaG2kUgYzkr5BZyUhkUKSaZyoZ/zXnmhaCR0AGCOJ2sC/j/pM1/Me1P9O7fM/fT+xwJCP7lo7SRkoai7x1F/JRqCEx2TgNbeTAwYN+zQg0umhwu4jCBwYkROCM/0Hz0Jn7NTxA+2C5UuIc/+Jv/NYsVXWPQhHixTA2FjRZpqjRxo8bb5dLmtKoxMyuuDG5x1GKc6JfkZbM4RlePzIPpTBS48ihI7bi6RW2edNrtm3bNq+jMUSOjNpcT8JI3fLMo18Nrc0qzclHPvRSGZp6mvcRDx3iC6vR2EX/MGsbjxg1wsoHl3tDCQZpgRSPbmI490LCJXPwb8yozRlWB0jiDWVOQLpbwjlho7EG9RAisoObrx1VWWU1tTU+4N4Xh1OYqyslSQ8e85ZciMnyP9QbkZpB3Yd07MMaCjJXfSWlojfwXzxwjzjhHTfJw0ZpPNJZPV6iG/gRxDDT8Mc6z7NVHZk2a4bNW7LQZqlagupblyx2QLcdYUzRMfQr0kaQgQCZzYmckXqXabRjR465yoyEid0T7JpGvy8kiPmVjO2d+0lmjQ9wC1C3cumZZEy6QFhniAYUDJnYj8VFMmE2iavjusd2oWFd4yBZ3GmO8VyAVEhLpqKhnqIVQAb8SF3RV3KEsHVsjJ31zE+fNvVDiEP9zidPKMxyLLiPu2gTsuMjkPQNjPtDBnqiPgdwnpwK2HP/yXAepSqFWpMKGM4BBRIqL9rIRGklcYcFtJXRo8fYkGGDraAM6SzNQN8MhVMIqzcupegQ+iFpQ+Yik0M+WoKLCoslndjFm20K87yFkzWJmcLFKggsas2mWvv27HVioPKWKBNlIEWG3QVaMiwZGvj/5n95qkuRgaMqGzI9dTHP0DoPDVnKoDyQgSihG0TP/S9kfOCSzN1osa//QfX0+3BRElhE5Ym3fuNCsxPBNe7H+ihEwwJ2fIaNCh1U91g39OeRN9hLjv4xP9U9+TfEQVh+FJnaqHssRg8xGWLKmF8a+MaMUd1UVQjc5wdJcb+2HukaCotI1DiiKkXH0M/UY0yYiECmQK2lFOe+bxdBPValOy3ESDGIixQku5Bxjh09aptf2ywp/Jrt2rbDN2xi82m6FVClkWqe0eSgk0nwzMy3w4BYz+fOOf1i4w+EcMmSZNTgN+rQZPuW6I+EcDfdoZZznrXUaVuecz95TffiMTyvz9TqWyKMvqk77icQvx9JT+GB9M9QF2bIg/sfhBMfaSR32BaFGTRUDaiXTp4xzWbOnWOzZ822cePH+agkLwCSAoqwul/kEoTHf27kFt+nMOE5mkuqHncc/U/Sej4jSGTccAsNUTlID8jgbsEzElIR8tHgGDMXxEDtrFH98ITqh6xQj6F1lUEEnNOyiqFl2ltjZaT0ep8lmTGSBgRSBfUyIl7n2gnAbvBLa/idM+6H9+Lrwd3kfRkVC0lMNNv0/7EQwR7nvOeFEQVKYZDAEJCdDRhlxuLoo0aNdmlK/ZRWdkz50MFWWMqG2qH9AHeiu5CXH3/uHe7jAwpRbuqK+8HK6fGT4uzol3Xa1iCADZ4pAjFBbs+AP2knFrxVVsionsiK/2H3vGO+5SUtscwJpSX21KHjVl0Bmau8DhozIUfPxMrQuYZ7EKX1/Wgi4vsAQuQ+j/dz0Wxff5lGJon7X7iP1JX09/q73EJ64gdab5mrXD5kiA8PpI+UTcNQcSEtz9mDl64vH6ctotNX2ySNN6PzjgJZj0lxfhhApA3nySEck5B7pg6nCXSlzIxaiCSKgCyodBwhUCQdLbhWk7W6ymo7euSoHTos6XzwkKvWJ04ct8qqKlexIXR1TXXSgBRGb7mayHeodyZkxG05zJ8MktBvi3iJl/mnc4gYu4Ocp05M+QtCym+FxTJFBU42Nv5CtaVle8L48TZs+HAbLenpUlOSlMajQSIu2zviPn4irFwwlJSw4r/c8Iv/PqKpoyCOMSnODwOGtF7lTBBPo3T161axEBuWWgNikGkxThL9IF6h3s/3OjQOhYYdV7Xrw2AGWnirq2t8UAMtv0i7oF7T+kvXTV3S8tvg7/E+9XFGK8V6OXV1fOtkhZiJgZSQivo5am1ooS60skFlfo+ZTgzzg7DRLveoo8buJyKBluAgC/mvG9xrVnODJW9c01koYIgDHTqBTlpP0QYGJml1I15ybEs1JgOTMQN5Qj3VJSuk1EuBsInbkBbJoyvOI7ATTkS4/DByyPM/PwjujS/BHbfLiZ7jRiwYYqMOtmgJ5znw72MSldftJu8FC/rDT+6H4HDuFMToPta9sQq73iDE95GwwX3sEG7e924kgJv+HUlcnE5xQTFgSNs6kDErn1a3zTlH4tGiykJyvOyEIJMqc0M470YRAbimIaY2U6uCodElmzdwJaT0bzhxQj53ougX+3qxx8B3V48hvOzinr+if+FN/Q8n7kgkm9+WHVrCOee7Ln1FMogc5qWG17AXDQ1nbtftBWISnoykemiECv3IYUwykj+s5YX05oh9/IqXCqK/UlwwDAjSgrYC6flND9rKdwhBMqifcyE4YRO2xMzLDyDxmvJ15dIsqM5un19yL7yZ6274eDM1k/uB7OH8bIj2m/2SmAivhybfBtjDeOEg+Of5fvI+kllXPPH3AGEA0Y145L7eCo6kuKAYMKRNkaK/IBSjKVKk6DNISZsiRR9DStoUKfoYUtKmSNHHkJI2RYo+hpS0KVL0MaSkTZGijyElbYoUfQwpaVOk6GNISZsiRZ+C2f8PmyQGyNIR+nsAAAAASUVORK5CYII=;" parent="oquPnyjEzPXF4-H-xuAM-6" vertex="1">
          <mxGeometry x="20" y="119" width="48.49" height="62" as="geometry" />
        </mxCell>
        <mxCell id="_z7VufSlRjq4akLYijZS-23" value="" style="html=1;shadow=0;dashed=0;shape=mxgraph.bootstrap.rrect;rSize=5;html=1;whiteSpace=wrap;fillColor=#ffffff;fontColor=#000000;verticalAlign=bottom;align=left;spacing=20;spacingBottom=50;fontSize=14;sketch=0;strokeColor=#451E0A;" parent="oquPnyjEzPXF4-H-xuAM-6" vertex="1">
          <mxGeometry x="38" y="669" width="250" height="281" as="geometry" />
        </mxCell>
        <mxCell id="_z7VufSlRjq4akLYijZS-24" value="Image cap" style="html=1;shadow=0;dashed=0;shape=mxgraph.bootstrap.topButton;rSize=5;perimeter=none;whiteSpace=wrap;strokeColor=#DFDFDF;fontColor=#DEE2E6;resizeWidth=1;fontSize=18;fillColor=#451E0A;" parent="_z7VufSlRjq4akLYijZS-23" vertex="1">
          <mxGeometry width="250" height="280" relative="1" as="geometry" />
        </mxCell>
        <mxCell id="_z7VufSlRjq4akLYijZS-26" value="&lt;div&gt;&lt;font color=&quot;#451e0a&quot;&gt;A Dr. CAFÉ nasceu da vontade dos seus fundadores de oferecer à Itajaí uma cafeteria&amp;nbsp;&lt;/font&gt;&lt;/div&gt;&lt;div&gt;&lt;font color=&quot;#451e0a&quot;&gt;diferente das que já existiam: estamos no centro de&amp;nbsp;&lt;/font&gt;&lt;span style=&quot;color: rgb(69 , 30 , 10)&quot;&gt;Itajaí (fora de shopping), oferecendo&amp;nbsp;&lt;/span&gt;&lt;/div&gt;&lt;div&gt;&lt;span style=&quot;color: rgb(69 , 30 , 10)&quot;&gt;cafés de alta qualidade às pessoas que não podem&amp;nbsp;&lt;/span&gt;&lt;span style=&quot;color: rgb(69 , 30 , 10)&quot;&gt;se dirigir aos shoppings para beber&amp;nbsp;&lt;/span&gt;&lt;/div&gt;&lt;div&gt;&lt;span style=&quot;color: rgb(69 , 30 , 10)&quot;&gt;um bom café.&amp;nbsp;&lt;/span&gt;&lt;/div&gt;&lt;div&gt;&lt;font color=&quot;#451e0a&quot;&gt;Ambiente agradável aliada aos produtos de qualidade, limpeza rigorosa e bom&amp;nbsp;&lt;/font&gt;&lt;/div&gt;&lt;div&gt;&lt;font color=&quot;#451e0a&quot;&gt;atendimento, Itajaí tem essa ótima opção para quem quiser desde tomar um café da&amp;nbsp;&lt;/font&gt;&lt;/div&gt;&lt;div&gt;&lt;font color=&quot;#451e0a&quot;&gt;tarde, até uma reunião de negócios.&lt;/font&gt;&lt;/div&gt;&lt;div&gt;&lt;font color=&quot;#451e0a&quot;&gt;Fundada em agosto de 2000, inicialmente funcionava numa pequena sala de 32 m2.&amp;nbsp;&lt;/font&gt;&lt;/div&gt;&lt;div&gt;&lt;font color=&quot;#451e0a&quot;&gt;Em fevereiro de 2002 foi inaugura em ampla sala e instalações modernas voltadas ao&amp;nbsp;&lt;/font&gt;&lt;/div&gt;&lt;div&gt;&lt;font color=&quot;#451e0a&quot;&gt;conforto dos clientes, e possibilitando oferecer gama bem diferenciada de bebidas (cafés,&amp;nbsp;&lt;/font&gt;&lt;/div&gt;&lt;div&gt;&lt;font color=&quot;#451e0a&quot;&gt;sucos, vitaminas, refrigerantes etc.), sanduíches, salgados (pães de queijo, croissants,&amp;nbsp;&lt;/font&gt;&lt;/div&gt;&lt;div&gt;&lt;font color=&quot;#451e0a&quot;&gt;empanadas...) e muitas outras delícias.&lt;/font&gt;&lt;/div&gt;&lt;div&gt;&lt;font color=&quot;#451e0a&quot;&gt;Ao longo desses 17 anos, a marca Dr. CAFÉ definiu um padrão de qualidade amplamente&amp;nbsp;&lt;/font&gt;&lt;/div&gt;&lt;div&gt;&lt;font color=&quot;#451e0a&quot;&gt;reconhecido, investindo na qualidade de seus produtos e no atendimento.&lt;/font&gt;&lt;/div&gt;&lt;div&gt;&lt;font color=&quot;#451e0a&quot;&gt;Nesse momento, para passar por cima do intempéries&amp;nbsp;do mercado atual, estamos nos&amp;nbsp;&lt;/font&gt;&lt;/div&gt;&lt;div&gt;&lt;font color=&quot;#451e0a&quot;&gt;preparando para apresentar uma nova Dr. CAFÉ à Itajaí.&lt;/font&gt;&lt;/div&gt;&lt;div&gt;&lt;br&gt;&lt;/div&gt;" style="text;html=1;resizable=0;autosize=1;align=left;verticalAlign=middle;points=[];fillColor=none;strokeColor=none;rounded=0;sketch=0;" parent="oquPnyjEzPXF4-H-xuAM-6" vertex="1">
          <mxGeometry x="299" y="689.5" width="500" height="240" as="geometry" />
        </mxCell>
        <mxCell id="_z7VufSlRjq4akLYijZS-27" value="" style="html=1;shadow=0;dashed=0;shape=mxgraph.bootstrap.rrect;rSize=5;strokeColor=#DFDFDF;html=1;whiteSpace=wrap;fillColor=#ffffff;sketch=0;" parent="oquPnyjEzPXF4-H-xuAM-6" vertex="1">
          <mxGeometry x="70" y="1099" width="690" height="311" as="geometry" />
        </mxCell>
        <mxCell id="_z7VufSlRjq4akLYijZS-28" value="&lt;b&gt;&lt;font style=&quot;font-size: 20px&quot;&gt;Card title&lt;/font&gt;&lt;/b&gt;&lt;br&gt;&lt;br&gt;This is a wider card with supporting text below as a natural lead-in to additional content. This content is a little bit longer." style="html=1;shadow=0;dashed=0;shape=mxgraph.bootstrap.leftButton;rSize=5;strokeColor=#DFDFDF;html=1;whiteSpace=wrap;fillColor=#ffffff;fontColor=#000000;verticalAlign=top;align=left;spacing=20;spacingBottom=0;fontSize=14;spacingTop=160;" parent="_z7VufSlRjq4akLYijZS-27" vertex="1">
          <mxGeometry width="230" height="310" relative="1" as="geometry" />
        </mxCell>
        <mxCell id="_z7VufSlRjq4akLYijZS-29" value="Image cap" style="html=1;shadow=0;dashed=0;shape=mxgraph.basic.corner_round_rect;dx=2;perimeter=none;whiteSpace=wrap;fillColor=#868E96;strokeColor=#DFDFDF;fontColor=#DEE2E6;resizeWidth=1;fontSize=18;" parent="_z7VufSlRjq4akLYijZS-28" vertex="1">
          <mxGeometry width="230" height="160" relative="1" as="geometry" />
        </mxCell>
        <mxCell id="_z7VufSlRjq4akLYijZS-30" value="&lt;b&gt;&lt;font style=&quot;font-size: 20px&quot;&gt;Card title&lt;/font&gt;&lt;/b&gt;&lt;br&gt;&lt;br&gt;This card has supporting text below as a natural lead-in to additional content." style="html=1;shadow=0;dashed=0;strokeColor=#DFDFDF;html=1;whiteSpace=wrap;fillColor=#ffffff;fontColor=#000000;verticalAlign=top;align=left;spacing=20;spacingBottom=0;fontSize=14;spacingTop=160;" parent="_z7VufSlRjq4akLYijZS-27" vertex="1">
          <mxGeometry width="230" height="310" relative="1" as="geometry">
            <mxPoint x="230" as="offset" />
          </mxGeometry>
        </mxCell>
        <mxCell id="_z7VufSlRjq4akLYijZS-31" value="Image cap" style="html=1;shadow=0;dashed=0;perimeter=none;whiteSpace=wrap;fillColor=#868E96;strokeColor=#DFDFDF;fontColor=#DEE2E6;resizeWidth=1;fontSize=18;" parent="_z7VufSlRjq4akLYijZS-30" vertex="1">
          <mxGeometry width="230" height="160" relative="1" as="geometry" />
        </mxCell>
        <mxCell id="_z7VufSlRjq4akLYijZS-32" value="&lt;b&gt;&lt;font style=&quot;font-size: 20px&quot;&gt;Card title&lt;/font&gt;&lt;/b&gt;&lt;br&gt;&lt;br&gt;This is a wider card with supporting text below as a natural lead-in to additional content. This card has&amp;nbsp;" style="html=1;shadow=0;dashed=0;shape=mxgraph.bootstrap.rightButton;rSize=5;strokeColor=#DFDFDF;html=1;whiteSpace=wrap;fillColor=#ffffff;fontColor=#000000;verticalAlign=top;align=left;spacing=20;spacingBottom=0;fontSize=14;spacingTop=160;" parent="_z7VufSlRjq4akLYijZS-27" vertex="1">
          <mxGeometry x="1" width="233" height="310" relative="1" as="geometry">
            <mxPoint x="-233" as="offset" />
          </mxGeometry>
        </mxCell>
        <mxCell id="_z7VufSlRjq4akLYijZS-33" value="Image cap" style="html=1;shadow=0;dashed=0;shape=mxgraph.basic.corner_round_rect;dx=2;flipH=1;perimeter=none;whiteSpace=wrap;fillColor=#868E96;strokeColor=#DFDFDF;fontColor=#DEE2E6;resizeWidth=1;fontSize=18;" parent="_z7VufSlRjq4akLYijZS-32" vertex="1">
          <mxGeometry width="233" height="160" relative="1" as="geometry" />
        </mxCell>
        <mxCell id="_z7VufSlRjq4akLYijZS-37" value="" style="html=1;shadow=0;dashed=0;shape=mxgraph.bootstrap.rrect;rSize=5;strokeColor=#DFDFDF;html=1;whiteSpace=wrap;fillColor=#ffffff;sketch=0;" parent="oquPnyjEzPXF4-H-xuAM-6" vertex="1">
          <mxGeometry x="68" y="1539" width="690" height="311" as="geometry" />
        </mxCell>
        <mxCell id="_z7VufSlRjq4akLYijZS-38" value="&lt;b&gt;&lt;font style=&quot;font-size: 20px&quot;&gt;Card title&lt;/font&gt;&lt;/b&gt;&lt;br&gt;&lt;br&gt;This is a wider card with supporting text below as a natural lead-in to additional content. This content is a little bit longer." style="html=1;shadow=0;dashed=0;shape=mxgraph.bootstrap.leftButton;rSize=5;strokeColor=#DFDFDF;html=1;whiteSpace=wrap;fillColor=#ffffff;fontColor=#000000;verticalAlign=top;align=left;spacing=20;spacingBottom=0;fontSize=14;spacingTop=160;" parent="_z7VufSlRjq4akLYijZS-37" vertex="1">
          <mxGeometry width="230" height="310" relative="1" as="geometry" />
        </mxCell>
        <mxCell id="_z7VufSlRjq4akLYijZS-39" value="Image cap" style="html=1;shadow=0;dashed=0;shape=mxgraph.basic.corner_round_rect;dx=2;perimeter=none;whiteSpace=wrap;fillColor=#868E96;strokeColor=#DFDFDF;fontColor=#DEE2E6;resizeWidth=1;fontSize=18;" parent="_z7VufSlRjq4akLYijZS-38" vertex="1">
          <mxGeometry width="230" height="160" relative="1" as="geometry" />
        </mxCell>
        <mxCell id="_z7VufSlRjq4akLYijZS-40" value="&lt;b&gt;&lt;font style=&quot;font-size: 20px&quot;&gt;Card title&lt;/font&gt;&lt;/b&gt;&lt;br&gt;&lt;br&gt;This card has supporting text below as a natural lead-in to additional content." style="html=1;shadow=0;dashed=0;strokeColor=#DFDFDF;html=1;whiteSpace=wrap;fillColor=#ffffff;fontColor=#000000;verticalAlign=top;align=left;spacing=20;spacingBottom=0;fontSize=14;spacingTop=160;" parent="_z7VufSlRjq4akLYijZS-37" vertex="1">
          <mxGeometry width="230" height="310" relative="1" as="geometry">
            <mxPoint x="230" as="offset" />
          </mxGeometry>
        </mxCell>
        <mxCell id="_z7VufSlRjq4akLYijZS-41" value="Image cap" style="html=1;shadow=0;dashed=0;perimeter=none;whiteSpace=wrap;fillColor=#868E96;strokeColor=#DFDFDF;fontColor=#DEE2E6;resizeWidth=1;fontSize=18;" parent="_z7VufSlRjq4akLYijZS-40" vertex="1">
          <mxGeometry width="230" height="160" relative="1" as="geometry" />
        </mxCell>
        <mxCell id="_z7VufSlRjq4akLYijZS-42" value="&lt;b&gt;&lt;font style=&quot;font-size: 20px&quot;&gt;Card title&lt;/font&gt;&lt;/b&gt;&lt;br&gt;&lt;br&gt;This is a wider card with supporting text below as a natural lead-in to additional content. This card has&amp;nbsp;" style="html=1;shadow=0;dashed=0;shape=mxgraph.bootstrap.rightButton;rSize=5;strokeColor=#DFDFDF;html=1;whiteSpace=wrap;fillColor=#ffffff;fontColor=#000000;verticalAlign=top;align=left;spacing=20;spacingBottom=0;fontSize=14;spacingTop=160;" parent="_z7VufSlRjq4akLYijZS-37" vertex="1">
          <mxGeometry x="1" width="233" height="310" relative="1" as="geometry">
            <mxPoint x="-233" as="offset" />
          </mxGeometry>
        </mxCell>
        <mxCell id="_z7VufSlRjq4akLYijZS-43" value="Image cap" style="html=1;shadow=0;dashed=0;shape=mxgraph.basic.corner_round_rect;dx=2;flipH=1;perimeter=none;whiteSpace=wrap;fillColor=#868E96;strokeColor=#DFDFDF;fontColor=#DEE2E6;resizeWidth=1;fontSize=18;" parent="_z7VufSlRjq4akLYijZS-42" vertex="1">
          <mxGeometry width="233" height="160" relative="1" as="geometry" />
        </mxCell>
        <mxCell id="oquPnyjEzPXF4-H-xuAM-43" value="&lt;font style=&quot;font-size: 46px&quot; color=&quot;#f9e6c8&quot;&gt;Mais pedidos&lt;/font&gt;" style="text;html=1;resizable=0;autosize=1;align=center;verticalAlign=middle;points=[];fillColor=none;strokeColor=none;rounded=0;" parent="1" vertex="1">
          <mxGeometry x="268" y="1040" width="290" height="30" as="geometry" />
        </mxCell>
        <mxCell id="_z7VufSlRjq4akLYijZS-19" value="" style="verticalLabelPosition=bottom;verticalAlign=top;html=1;shape=mxgraph.basic.rect;fillColor2=none;strokeWidth=1;size=20;indent=5;fillColor=#451E0A;" parent="1" vertex="1">
          <mxGeometry y="1900" width="826" height="461" as="geometry" />
        </mxCell>
        <mxCell id="_z7VufSlRjq4akLYijZS-20" value="&lt;font style=&quot;font-size: 46px&quot; color=&quot;#f9e6c8&quot;&gt;Contatos&lt;/font&gt;" style="text;html=1;resizable=0;autosize=1;align=center;verticalAlign=middle;points=[];fillColor=none;strokeColor=none;rounded=0;" parent="1" vertex="1">
          <mxGeometry x="314" y="1940" width="200" height="30" as="geometry" />
        </mxCell>
        <mxCell id="_z7VufSlRjq4akLYijZS-36" value="" style="verticalLabelPosition=bottom;shadow=0;dashed=0;align=center;html=1;verticalAlign=top;strokeWidth=1;shape=mxgraph.mockup.misc.map;sketch=0;fillColor=#451E0A;" parent="1" vertex="1">
          <mxGeometry x="50" y="2020" width="250" height="250" as="geometry" />
        </mxCell>
        <mxCell id="_z7VufSlRjq4akLYijZS-44" value="&lt;font color=&quot;#f9e6c8&quot; style=&quot;font-size: 19px&quot;&gt;Fone:&amp;nbsp;&lt;/font&gt;&lt;font color=&quot;#f9e6c8&quot;&gt;&lt;span style=&quot;font-size: 19px&quot;&gt;+55 47 3348 4609&lt;/span&gt;&lt;/font&gt;" style="text;html=1;resizable=0;autosize=1;align=center;verticalAlign=middle;points=[];fillColor=none;strokeColor=none;rounded=0;sketch=0;" parent="1" vertex="1">
          <mxGeometry x="314" y="2120.5" width="220" height="20" as="geometry" />
        </mxCell>
        <mxCell id="_z7VufSlRjq4akLYijZS-45" value="&lt;font color=&quot;#f9e6c8&quot; style=&quot;font-size: 19px&quot;&gt;Centro de Itajaí&lt;/font&gt;" style="text;html=1;resizable=0;autosize=1;align=center;verticalAlign=middle;points=[];fillColor=none;strokeColor=none;rounded=0;sketch=0;" parent="1" vertex="1">
          <mxGeometry x="310" y="2060" width="150" height="20" as="geometry" />
        </mxCell>
        <mxCell id="_z7VufSlRjq4akLYijZS-46" value="&lt;font color=&quot;#f9e6c8&quot; style=&quot;font-size: 19px&quot;&gt;CEP:&amp;nbsp;&lt;/font&gt;&lt;font color=&quot;#f9e6c8&quot;&gt;&lt;span style=&quot;font-size: 19px&quot;&gt;88301-320&lt;/span&gt;&lt;/font&gt;" style="text;html=1;resizable=0;autosize=1;align=center;verticalAlign=middle;points=[];fillColor=none;strokeColor=none;rounded=0;sketch=0;" parent="1" vertex="1">
          <mxGeometry x="310" y="2090" width="160" height="20" as="geometry" />
        </mxCell>
        <mxCell id="_z7VufSlRjq4akLYijZS-47" value="&lt;font color=&quot;#f9e6c8&quot; style=&quot;font-size: 19px&quot;&gt;Email: drcafe@outlook.com.br&lt;/font&gt;" style="text;html=1;resizable=0;autosize=1;align=center;verticalAlign=middle;points=[];fillColor=none;strokeColor=none;rounded=0;sketch=0;" parent="1" vertex="1">
          <mxGeometry x="314" y="2150" width="270" height="20" as="geometry" />
        </mxCell>
        <mxCell id="_z7VufSlRjq4akLYijZS-48" value="&lt;font color=&quot;#f9e6c8&quot;&gt;&lt;span style=&quot;font-size: 19px&quot;&gt;Rua Samuel Heusi, 1253&amp;nbsp;&lt;/span&gt;&lt;/font&gt;" style="text;html=1;resizable=0;autosize=1;align=center;verticalAlign=middle;points=[];fillColor=none;strokeColor=none;rounded=0;sketch=0;" parent="1" vertex="1">
          <mxGeometry x="315" y="2030" width="230" height="20" as="geometry" />
        </mxCell>
      </root>
    </mxGraphModel>
  </diagram>
</mxfile>
